<svg xmlns="http://www.w3.org/2000/svg" version="1.1" width="512" height="512">
<path d="M0 0 C3.27772205 1.63886102 4.17025643 5.18116434 5.6875 8.375 C11.29718016 19.75650434 17.28216569 28.58228676 26.38232422 37.45776367 C31.71415556 42.6596308 36.52611731 48.03221593 41 54 C41.45439453 54.60505371 41.90878906 55.21010742 42.37695312 55.83349609 C75.15254232 99.84735549 91.74541218 154.64609379 85.28149414 209.4465332 C82.49708897 228.09157421 76.33396095 246.1492134 68 263 C67.65743164 263.7120459 67.31486328 264.4240918 66.96191406 265.15771484 C58.88255854 281.8623283 47.87527961 295.73912682 35 309 C34.12214844 309.9178125 33.24429688 310.835625 32.33984375 311.78125 C27.81719549 316.42273137 23.29294247 320.51237449 17.91015625 324.13671875 C10.82039044 331.05250258 11.16190034 343.78574142 10.91845703 353.12988281 C10.83545736 360.08750965 10.88579251 367.04300701 11 374 C9.53932801 373.54917531 8.08151968 373.08906463 6.625 372.625 C5.81289063 372.36976563 5.00078125 372.11453125 4.1640625 371.8515625 C2 371 2 371 0 369 C-0.34716797 366.83959961 -0.34716797 366.83959961 -0.4921875 364.15234375 C-0.55438477 363.16266602 -0.61658203 362.17298828 -0.68066406 361.15332031 C-0.77686035 359.56148926 -0.77686035 359.56148926 -0.875 357.9375 C-1.34862971 338.97688732 -1.34862971 338.97688732 -10.47241211 323.37841797 C-12.92799339 321.38791656 -15.45189055 319.49580444 -17.98095703 317.60009766 C-29.18267175 308.72270488 -38.58314057 297.47365805 -47 286 C-47.61875 285.17628906 -48.2375 284.35257812 -48.875 283.50390625 C-50.66444188 281.04756589 -52.34582046 278.54959411 -54 276 C-54.54624023 275.16154541 -54.54624023 275.16154541 -55.10351562 274.30615234 C-82.55128885 231.59588983 -87.57513888 181.97096125 -77.20361328 132.9074707 C-70.00230425 101.23120612 -56.45703365 70.69998978 -35.48339844 45.77734375 C-33.50293666 43.40444024 -31.63318479 40.95040913 -29.75 38.5 C-24.39243828 31.84883898 -18.32243626 25.8810827 -11.75 20.4375 C-5.2050014 14.79343239 -1.5387177 8.46294735 0 0 Z " fill="#4DA93F" transform="translate(254,12)"/>
<path d="M0 0 C0.66 0 1.32 0 2 0 C2.59425781 1.16015625 3.18851562 2.3203125 3.80078125 3.515625 C9.16196668 13.71818303 14.73018595 21.94747627 23 30 C58.88618429 65.23370821 83.68633169 118.78235168 84.22705078 169.28544617 C84.4307539 200.60500902 80.0507759 228.59014453 66 257 C65.65743164 257.7120459 65.31486328 258.4240918 64.96191406 259.15771484 C57.20280127 275.20020482 46.78692575 288.7692173 34.41845703 301.53466797 C33.04749079 302.9509398 31.69332999 304.38342009 30.33984375 305.81640625 C25.3133739 311.02932939 20.23145904 315.29724898 14 319 C7.63426463 314.9330024 5.50408568 308.49063638 3.734375 301.4140625 C3.39521619 299.82001609 3.06711618 298.22357748 2.75 296.625 C2.49089844 295.49384766 2.49089844 295.49384766 2.2265625 294.33984375 C-0.45539465 281.12162635 0.91199887 267.13883748 1.71191406 253.76928711 C5.25579335 193.60990387 3.09770417 132.95321613 2.0625 72.75 C2.02987816 70.83452425 2.02987816 70.83452425 1.99659729 68.88035202 C1.86985544 61.46305571 1.73821214 54.04587221 1.59949303 46.6287899 C1.55739741 44.36692713 1.51621425 42.10504714 1.47605324 39.84314919 C1.23743145 26.54268718 0.8029541 13.27892313 0 0 Z " fill="#439934" transform="translate(256,18)"/>
<path d="M0 0 C5.81660061 -0.09944869 11.63269792 -0.1717413 17.44995117 -0.21972656 C19.4256249 -0.23974646 21.40124009 -0.26697092 23.37670898 -0.30175781 C26.2291515 -0.35070207 29.08080549 -0.37306525 31.93359375 -0.390625 C32.80584091 -0.41127014 33.67808807 -0.43191528 34.57676697 -0.45318604 C40.74927474 -0.4554056 45.67633813 0.79944932 51 4 C55.99024521 9.23975747 56.34894088 12.95103836 56.28125 20.0078125 C55.90571585 24.00307863 54.79087014 26.13370094 52 29 C49.25 30.375 49.25 30.375 47 31 C47 31.66 47 32.32 47 33 C47.73863281 33.09796875 48.47726562 33.1959375 49.23828125 33.296875 C54.50531658 34.6378458 58.64085465 38.84801986 61.5 43.375 C62.79827765 50.19095765 62.68466357 56.941325 59 63 C52.8656557 70.05593594 45.16535589 73.7632275 36 75 C33.03282109 75.12823907 30.07104146 75.11680851 27.1015625 75.09765625 C26.26660248 75.0962413 25.43164246 75.09482635 24.57138062 75.09336853 C21.92254958 75.08780174 19.2738052 75.07525547 16.625 75.0625 C14.82161581 75.0574807 13.01823029 75.05291855 11.21484375 75.04882812 C6.80986279 75.0378432 2.40494606 75.02060163 -2 75 C-1.61328125 72.56713867 -1.61328125 72.56713867 -1 70 C0.8125 68.92578125 0.8125 68.92578125 3 68.3125 C5.14126234 67.71833374 5.14126234 67.71833374 7 67 C8.30760893 64.38478215 8.11997548 62.46886599 8.11352539 59.54052734 C8.11341209 57.82897964 8.11341209 57.82897964 8.11329651 56.08285522 C8.10813522 54.84637238 8.10297394 53.60988953 8.09765625 52.3359375 C8.0962413 51.07359283 8.09482635 49.81124817 8.09336853 48.51065063 C8.08871078 45.15361701 8.07972408 41.796651 8.06866455 38.43963623 C8.0584377 35.01445094 8.05386818 31.58925866 8.04882812 28.1640625 C8.03778238 21.44268716 8.02050924 14.72135286 8 8 C4.7 7.01 1.4 6.02 -2 5 C-1.34 3.35 -0.68 1.7 0 0 Z M23 6 C21.0830427 11.62257161 20.75110076 16.52369385 20.875 22.4375 C20.88402344 23.26443359 20.89304687 24.09136719 20.90234375 24.94335938 C20.92568488 26.96236708 20.96154712 28.98122356 21 31 C23.39652528 31.08139142 25.79025436 31.14067009 28.1875 31.1875 C28.86103516 31.21263672 29.53457031 31.23777344 30.22851562 31.26367188 C34.70855667 31.32923345 37.46037634 30.77604854 41 28 C43.98306103 23.52540846 43.59199904 19.24342008 43 14 C41.05259825 9.93585722 38.76167862 8.71010259 34.6875 7.1875 C30.6502014 5.99770008 27.1859368 5.73281254 23 6 Z M21 38 C20.88183949 44.31502258 20.9727016 50.62760966 21.25 56.9375 C21.29640625 58.18402344 21.3428125 59.43054688 21.390625 60.71484375 C21.77438521 64.01885817 21.77438521 64.01885817 23.6484375 66.41015625 C28.23280295 69.50955282 33.70303476 68.65223826 39 68 C43.54215642 65.88554787 45.93725527 63.5597515 48 59 C49.73931098 53.53359405 48.48339171 49.01454095 46 44 C41.97251334 39.86652685 37.97692368 38.10243128 32.23046875 37.8046875 C30.88267285 37.81783673 29.53494305 37.8414751 28.1875 37.875 C27.49462891 37.88402344 26.80175781 37.89304687 26.08789062 37.90234375 C24.39177605 37.92573843 22.69584129 37.96160359 21 38 Z " fill="#93785D" transform="translate(434,396)"/>
<path d="M0 0 C6.77680466 -0.10212012 13.55340805 -0.17176532 20.33081055 -0.21972656 C22.63231827 -0.23973827 24.93377582 -0.26695631 27.23510742 -0.30175781 C30.55920862 -0.35073699 33.88263276 -0.37307401 37.20703125 -0.390625 C38.2220723 -0.41127014 39.23711334 -0.43191528 40.28291321 -0.45318604 C51.45977363 -0.45663109 59.87633106 2.87390958 67.90234375 10.6328125 C75.13784113 18.79801067 76.41733904 28.66832558 76.25 39.2734375 C75.56700885 49.45427427 71.68609747 57.82482469 64.1875 64.75 C51.11518801 75.46101913 35.86037217 75.42066486 19.75 75.1875 C17.92579235 75.17241988 16.10157258 75.15873739 14.27734375 75.14648438 C9.85125813 75.11375617 5.42576611 75.06215964 1 75 C1.27734375 72.1171875 1.27734375 72.1171875 2 69 C4.20802776 67.31618027 6.31603498 66.87838855 9 66 C9.56613632 52.39917707 10.09804339 38.801711 10.125 25.1875 C10.12951172 24.25929443 10.13402344 23.33108887 10.13867188 22.37475586 C10.12781702 17.47605063 9.83015448 12.82939077 9 8 C5.7 7.01 2.4 6.02 -1 5 C-0.67 3.35 -0.34 1.7 0 0 Z M23 8 C22.686828 10.30907472 22.686828 10.30907472 22.7253418 13.01293945 C22.71580978 14.05774979 22.70627777 15.10256012 22.69645691 16.17903137 C22.69736832 17.31233383 22.69827972 18.44563629 22.69921875 19.61328125 C22.69493362 20.77498337 22.6906485 21.93668549 22.68623352 23.1335907 C22.68048109 25.59580839 22.67999664 28.05804307 22.68432617 30.52026367 C22.68747832 34.28659179 22.66406441 38.05212892 22.63867188 41.81835938 C22.6363982 44.20833234 22.6356957 46.59830742 22.63671875 48.98828125 C22.627509 50.11551102 22.61829926 51.24274078 22.60881042 52.40412903 C22.61503922 53.45839584 22.62126801 54.51266266 22.62768555 55.59887695 C22.62705612 56.52328079 22.6264267 57.44768463 22.6257782 58.40010071 C23.0775785 61.53897521 24.17922737 63.42673261 26 66 C30.98248426 69.63765444 38.17866097 68.50961217 44 68 C50.71357414 66.30822215 55.14398818 61.55388439 59 56 C63.8260434 47.67374929 63.97683371 36.41010284 61.71484375 27.2734375 C59.01229739 18.67845398 54.57112361 12.94176153 46.4921875 8.67578125 C40.17623454 6.05180663 28.39241426 2.60758574 23 8 Z " fill="#94785C" transform="translate(350,396)"/>
<path d="M0 0 C0.33 1.98 0.66 3.96 1 6 C1.7734375 5.566875 2.546875 5.13375 3.34375 4.6875 C14.13769752 -1.08352144 14.13769752 -1.08352144 21 0 C24.25280684 1.51797652 26.59890215 3.34615501 29 6 C31.38881423 5.07529772 33.73345216 4.1350784 36.01953125 2.9765625 C41.37700365 0.33066545 46.01233625 -1.12762029 52 0 C57.09075087 2.6396486 60.01018641 5.3952274 62.0390625 10.734375 C63.71529895 16.79419032 63.47378547 23.19675035 63.625 29.4375 C63.66367188 30.74138672 63.70234375 32.04527344 63.7421875 33.38867188 C63.83606701 36.59230999 63.92175154 39.79594832 64 43 C66.31 43.66 68.62 44.32 71 45 C70.67 46.65 70.34 48.3 70 50 C61.75 50 53.5 50 45 50 C45.33 48.35 45.66 46.7 46 45 C48.5625 43.6875 48.5625 43.6875 51 43 C51.0872253 38.60429206 51.14046869 34.20880729 51.1875 29.8125 C51.21263672 28.56662109 51.23777344 27.32074219 51.26367188 26.03710938 C51.27333984 24.83505859 51.28300781 23.63300781 51.29296875 22.39453125 C51.3086792 21.28956299 51.32438965 20.18459473 51.34057617 19.04614258 C50.9534249 15.58342833 50.10917944 13.75311483 48 11 C44.71745523 9.45527305 42.3961741 8.67017557 38.80078125 9.51953125 C35.11689603 10.76901332 35.11689603 10.76901332 32 13 C31.98317483 15.22035526 32.03753887 17.4413099 32.12109375 19.66015625 C32.14470474 20.32462265 32.16831573 20.98908905 32.19264221 21.6736908 C32.26943685 23.80350279 32.35339213 25.93296546 32.4375 28.0625 C32.49070494 29.50323791 32.54344543 30.94399305 32.59570312 32.38476562 C32.72507286 35.92339313 32.86086741 39.46174141 33 43 C34.98 43.66 36.96 44.32 39 45 C39 46.65 39 48.3 39 50 C30.42 50 21.84 50 13 50 C13.33 48.35 13.66 46.7 14 45 C15.98 44.34 17.96 43.68 20 43 C20.05826088 38.6250563 20.09368457 34.25021302 20.125 29.875 C20.14175781 28.6375 20.15851562 27.4 20.17578125 26.125 C20.18222656 24.92617188 20.18867187 23.72734375 20.1953125 22.4921875 C20.20578613 21.39245605 20.21625977 20.29272461 20.22705078 19.15966797 C19.98673701 15.81543058 19.18909337 13.12291305 18 10 C16.67318565 9.71743768 15.33761906 9.47594917 14 9.25 C13.2575 9.11078125 12.515 8.9715625 11.75 8.828125 C7.92293675 8.88761521 7.92293675 8.88761521 1 13 C1 23.23 1 33.46 1 44 C4.465 44.495 4.465 44.495 8 45 C7.67 46.65 7.34 48.3 7 50 C-1.25 50 -9.5 50 -18 50 C-18 48.35 -18 46.7 -18 45 C-17.030625 44.71125 -16.06125 44.4225 -15.0625 44.125 C-11.89335797 43.35785318 -11.89335797 43.35785318 -11 41 C-10.91440882 38.82175039 -10.89286588 36.64084745 -10.90234375 34.4609375 C-10.90717773 32.50800781 -10.90717773 32.50800781 -10.91210938 30.515625 C-10.92046534 29.13541601 -10.92893029 27.75520768 -10.9375 26.375 C-10.94251499 24.98698074 -10.9470779 23.59895978 -10.95117188 22.2109375 C-10.96299024 18.80724868 -10.97946566 15.40364561 -11 12 C-13.64 10.68 -16.28 9.36 -19 8 C-18.67 6.68 -18.34 5.36 -18 4 C-15.5636811 3.32873871 -13.12611117 2.66283646 -10.6875 2 C-9.65206055 1.71382813 -9.65206055 1.71382813 -8.59570312 1.421875 C-5.64212051 0.62283816 -3.07440781 0 0 0 Z " fill="#50372B" transform="translate(35,420)"/>
<path d="M0 0 C3.10617778 0.76910153 5.3903538 0.499603 8.4453125 -0.39453125 C9.2290625 -0.58015625 10.0128125 -0.76578125 10.8203125 -0.95703125 C11.3565625 -1.10140625 11.8928125 -1.24578125 12.4453125 -1.39453125 C12.77055176 2.18310064 12.87487837 4.00089456 10.7578125 6.98046875 C8.02158489 8.90322329 6.70297986 8.74593202 3.4453125 8.60546875 C3.49171875 9.23453125 3.538125 9.86359375 3.5859375 10.51171875 C3.85263682 16.83630253 3.15173084 21.38499063 -0.5546875 26.60546875 C-5.85215637 31.90293762 -12.22856912 33.85790565 -19.5546875 34.60546875 C-19.5546875 35.92546875 -19.5546875 37.24546875 -19.5546875 38.60546875 C-18.91966309 38.68063721 -18.28463867 38.75580566 -17.63037109 38.83325195 C-14.72862447 39.18333501 -11.82928058 39.55049195 -8.9296875 39.91796875 C-7.93066406 40.03591797 -6.93164062 40.15386719 -5.90234375 40.27539062 C-0.60275019 40.95977522 3.87003499 41.63450933 8.4453125 44.60546875 C11.5194844 49.0117818 12.31635941 53.33959426 11.4453125 58.60546875 C8.95062012 66.50532796 3.47321423 71.15257331 -3.6796875 74.91796875 C-11.17420279 78.36487368 -19.43849467 78.76083792 -27.3671875 76.41796875 C-32.13104885 74.63362492 -34.96214967 71.88052279 -37.8671875 67.73046875 C-38.90785716 64.51385344 -38.90809053 61.96279753 -38.5546875 58.60546875 C-36.18267141 54.82781349 -33.18009829 52.18141852 -29.5546875 49.60546875 C-28.8946875 49.60546875 -28.2346875 49.60546875 -27.5546875 49.60546875 C-27.5546875 48.94546875 -27.5546875 48.28546875 -27.5546875 47.60546875 C-28.4828125 47.17234375 -28.4828125 47.17234375 -29.4296875 46.73046875 C-31.5546875 45.60546875 -31.5546875 45.60546875 -33.5546875 43.60546875 C-34.0546875 41.23046875 -34.0546875 41.23046875 -33.5546875 38.60546875 C-30.6171875 36.41796875 -30.6171875 36.41796875 -27.5546875 34.60546875 C-27.2246875 33.94546875 -26.8946875 33.28546875 -26.5546875 32.60546875 C-27.2971875 32.37859375 -28.0396875 32.15171875 -28.8046875 31.91796875 C-32.11234559 30.33931375 -33.50327159 28.60932776 -35.5546875 25.60546875 C-37.43363204 19.96863512 -37.30189692 13.84709701 -35.4296875 8.23046875 C-26.58263841 -4.15539998 -13.44532695 -4.07956501 0 0 Z M-24.15234375 5.921875 C-26.73340522 9.02058668 -26.6620572 12.69594836 -26.5546875 16.60546875 C-25.74006175 20.50355394 -24.4380195 23.55855675 -21.8671875 26.60546875 C-18.39086984 28.10874125 -15.2688839 28.39864416 -11.5546875 27.60546875 C-8.26773469 24.90848183 -7.63099078 22.91576876 -6.6171875 18.79296875 C-6.25788701 14.27604831 -7.34452925 10.53665187 -9.5546875 6.60546875 C-14.2204672 1.93968905 -18.99333712 1.67105536 -24.15234375 5.921875 Z M-27.4296875 54.41796875 C-28.97011583 57.41324607 -29.03039293 59.27553075 -28.5546875 62.60546875 C-26.11873625 66.9698814 -23.22999161 68.61173594 -18.6328125 70.1015625 C-12.50974839 71.58629045 -8.05537 70.51148969 -2.5546875 67.60546875 C-0.02229062 65.85227091 1.19532327 64.7492874 1.859375 61.7109375 C2.1201076 58.01265147 1.90615232 56.18919919 -0.4296875 53.23046875 C-9.02885882 48.75889966 -19.97820598 47.21486995 -27.4296875 54.41796875 Z " fill="#4E372A" transform="translate(272.5546875,422.39453125)"/>
<path d="M0 0 C0.33 1.98 0.66 3.96 1 6 C1.47050781 5.65066406 1.94101563 5.30132812 2.42578125 4.94140625 C3.04839844 4.48636719 3.67101562 4.03132813 4.3125 3.5625 C4.92738281 3.11003906 5.54226562 2.65757812 6.17578125 2.19140625 C10.94067775 -0.92057112 16.53125875 -0.54060623 22 0 C26.73161102 2.06470299 28.91956478 4.74848924 31.1550293 9.37402344 C32.9677528 15.00755537 32.64411693 21.00960859 32.6875 26.875 C32.72578819 29.49758269 32.77481476 32.11977055 32.82421875 34.7421875 C32.84101685 36.47251221 32.84101685 36.47251221 32.8581543 38.23779297 C32.81295865 40.9598795 32.81295865 40.9598795 34 43 C35.97888961 43.72693904 37.97954558 44.39816251 40 45 C40.042721 46.66611905 40.04063832 48.33382885 40 50 C38.28432208 51.71567792 36.02627265 51.13015825 33.6875 51.1328125 C32.61242187 51.13410156 31.53734375 51.13539063 30.4296875 51.13671875 C29.29789063 51.13285156 28.16609375 51.12898438 27 51.125 C25.86820313 51.12886719 24.73640625 51.13273437 23.5703125 51.13671875 C22.49523437 51.13542969 21.42015625 51.13414062 20.3125 51.1328125 C19.31863281 51.13168457 18.32476562 51.13055664 17.30078125 51.12939453 C15 51 15 51 14 50 C13.95936168 48.33382885 13.957279 46.66611905 14 45 C15.98 44.34 17.96 43.68 20 43 C20.08742801 38.79179855 20.14053641 34.58383224 20.1875 30.375 C20.21263672 29.18519531 20.23777344 27.99539063 20.26367188 26.76953125 C20.45507878 18.37323919 20.45507878 18.37323919 17 11 C12.98302764 8.99151382 8.2378246 9.63128629 4.0625 10.875 C1.84793921 11.82823451 1.84793921 11.82823451 1 14 C0.91426606 16.25120742 0.89287812 18.50499303 0.90234375 20.7578125 C0.90446617 21.75238968 0.90446617 21.75238968 0.90663147 22.76705933 C0.91223246 24.88641863 0.924785 27.00567259 0.9375 29.125 C0.94251488 30.56119639 0.94707781 31.99739444 0.95117188 33.43359375 C0.96220218 36.95576345 0.97946741 40.47787145 1 44 C4.465 44.495 4.465 44.495 8 45 C8.042721 46.66611905 8.04063832 48.33382885 8 50 C7 51 7 51 4.59155273 51.11352539 C3.54942627 51.10828857 2.5072998 51.10305176 1.43359375 51.09765625 C0.30888672 51.09443359 -0.81582031 51.09121094 -1.97460938 51.08789062 C-3.15861328 51.07951172 -4.34261719 51.07113281 -5.5625 51.0625 C-6.75037109 51.05798828 -7.93824219 51.05347656 -9.16210938 51.04882812 C-12.10812226 51.03699675 -15.05403681 51.02051287 -18 51 C-18.33 49.35 -18.66 47.7 -19 46 C-16 44 -16 44 -12 44 C-12 33.44 -12 22.88 -12 12 C-14.64 10.68 -17.28 9.36 -20 8 C-19.67 6.68 -19.34 5.36 -19 4 C-16.58490559 3.32713788 -14.16819644 2.66153988 -11.75 2 C-11.06808594 1.80921875 -10.38617188 1.6184375 -9.68359375 1.421875 C-6.29399088 0.50042956 -3.54221024 0 0 0 Z " fill="#4E362A" transform="translate(190,420)"/>
<path d="M0 0 C6.01767566 4.0237236 8.74444612 8.97153854 10.5 15.91015625 C11.99700726 23.5947935 10.47066787 30.77242457 6.71484375 37.59375 C2.59746247 43.61836511 -2.25506076 46.0576765 -9.03125 48.31640625 C-16.96593116 48.93141966 -24.52905394 49.4393486 -31.03125 44.31640625 C-36.84225887 39.18357004 -39.44255902 33.2803067 -40.34765625 25.6484375 C-40.67261254 18.21637262 -39.333143 11.3890329 -34.55859375 5.5 C-25.32747199 -3.20737017 -11.41445627 -5.93469013 0 0 Z M-25.03125 6.31640625 C-28.78388774 11.94536285 -29.51310198 17.72356821 -28.62890625 24.31640625 C-27.24426532 30.87091952 -25.31869392 35.99854251 -20.03125 40.31640625 C-16.26947432 42.53622635 -13.39913782 42.62839824 -9.03125 42.31640625 C-6.01062985 41.39343898 -5.19012941 40.54001431 -3.34375 37.94140625 C-0.04812528 31.35015682 -0.00312481 23.57578203 -1.71484375 16.484375 C-3.74372925 10.86916077 -5.8406694 7.35240622 -11.03125 4.31640625 C-16.31669558 2.8316256 -20.76101978 2.42296105 -25.03125 6.31640625 Z " fill="#4E362A" transform="translate(153.03125,422.68359375)"/>
<path d="M0 0 C5.40313286 3.48176018 9.46084715 8.85517964 11.375 14.98046875 C13.07186891 23.46481331 12.01358134 31.56825981 7.8125 39.16796875 C3.61776355 44.25362268 -1.65564025 47.97648945 -8.1875 49.16796875 C-16.13643104 49.91259929 -23.66297661 50.27808497 -30.1875 45.16796875 C-36.92598107 39.49345837 -38.66742244 32.10870553 -39.5625 23.60546875 C-38.73514041 16.02133922 -36.9615677 9.45062644 -31.1875 4.16796875 C-21.64642873 -1.44981401 -10.7089645 -4.752103 0 0 Z M-25.1875 9.16796875 C-28.41092716 15.61482308 -28.13960183 23.15940367 -26.5 30.0625 C-24.23056807 36.36962958 -21.26888277 40.12727737 -15.1875 43.16796875 C-9.45499088 43.67177561 -9.45499088 43.67177561 -4.3125 41.48046875 C0.6753388 36.05252653 0.23360395 29.84669114 0.0546875 22.83984375 C-0.37428052 16.33613504 -1.76543491 12.15427026 -6.75 7.73046875 C-13.4691005 2.42743674 -19.12361325 2.82204075 -25.1875 9.16796875 Z " fill="#4E372B" transform="translate(328.1875,421.83203125)"/>
<path d="M0 0 C0.33 0 0.66 0 1 0 C1.06993164 0.5983667 1.13986328 1.1967334 1.21191406 1.81323242 C3.1055005 21.83144237 3.1055005 21.83144237 11 40 C11.99 40.66 12.98 41.32 14 42 C13.54625 43.134375 13.0925 44.26875 12.625 45.4375 C7.76833438 60.3067227 8.74685414 76.57952245 9 92 C7.53932801 91.54917531 6.08151968 91.08906463 4.625 90.625 C3.81289063 90.36976563 3.00078125 90.11453125 2.1640625 89.8515625 C0 89 0 89 -2 87 C-2.36303711 84.79199219 -2.36303711 84.79199219 -2.52734375 82.046875 C-2.59590576 81.04148682 -2.66446777 80.03609863 -2.73510742 79.00024414 C-2.80189697 77.92766357 -2.86868652 76.85508301 -2.9375 75.75 C-3.43227394 68.7048153 -4.02472345 61.93279037 -5.6875 55.0625 C-7.48722649 47.48903166 -6.56715698 42.057864 -4.55078125 34.6484375 C-2.76901747 27.57423131 -2.00497392 20.50016407 -1.3125 13.25 C-1.18294922 11.96867187 -1.05339844 10.68734375 -0.91992188 9.3671875 C-0.60542202 6.24548525 -0.29892992 3.12322491 0 0 Z " fill="#C2C2A8" transform="translate(256,294)"/>
<path d="M0 0 C0.33 0 0.66 0 1 0 C0.9278125 0.8765625 0.855625 1.753125 0.78125 2.65625 C-0.12976977 15.1068535 -0.10159359 27.52118079 0 40 C-1.46067199 39.54917531 -2.91848032 39.08906463 -4.375 38.625 C-5.18710937 38.36976563 -5.99921875 38.11453125 -6.8359375 37.8515625 C-9 37 -9 37 -11 35 C-12.03221394 29.3228233 -10.79715466 24.79710131 -8.28515625 19.74609375 C-6.24265261 15.38171667 -4.66622326 10.84550614 -3.01904297 6.32006836 C-1.10006021 1.10006021 -1.10006021 1.10006021 0 0 Z " fill="#CDCCB6" transform="translate(265,346)"/>
<path d="M0 0 C0.33 0 0.66 0 1 0 C1.08040527 0.61931396 1.16081055 1.23862793 1.24365234 1.87670898 C1.61661609 4.73086593 1.99577134 7.58416898 2.375 10.4375 C2.50132812 11.41138672 2.62765625 12.38527344 2.7578125 13.38867188 C3.55524809 19.34950292 4.60829145 25.1487732 6 31 C5.34 31.33 4.68 31.66 4 32 C3.11305772 34.00312661 3.11305772 34.00312661 2.37890625 36.4375 C1.93514648 37.77941406 1.93514648 37.77941406 1.48242188 39.1484375 C0.86950777 41.04834108 0.26012643 42.94938799 -0.34570312 44.8515625 C-0.64283203 45.74617188 -0.93996094 46.64078125 -1.24609375 47.5625 C-1.51091553 48.38878906 -1.7757373 49.21507812 -2.04858398 50.06640625 C-2.36255127 50.70449219 -2.67651855 51.34257812 -3 52 C-4.485 52.495 -4.485 52.495 -6 53 C-7.41936378 46.37630237 -6.54113692 41.70874439 -4.69335938 35.23828125 C-1.64368582 23.79414542 -1.07568294 11.75815639 0 0 Z " fill="#A5A985" transform="translate(256,294)"/>
<path d="M0 0 C0.66 0 1.32 0 2 0 C3.625 2.6875 3.625 2.6875 5 6 C4.20751953 8.36206055 4.20751953 8.36206055 3 11 C2.34105624 12.83610712 1.69315804 14.67620502 1.0546875 16.51953125 C0.70019531 17.54111328 0.34570312 18.56269531 -0.01953125 19.61523438 C-0.38433594 20.67033203 -0.74914062 21.72542969 -1.125 22.8125 C-1.49753906 23.88693359 -1.87007813 24.96136719 -2.25390625 26.06835938 C-3.17032543 28.71187625 -4.08565344 31.35576568 -5 34 C-5.66 34 -6.32 34 -7 34 C-9.39634401 26.36165346 -9.51780034 22.72328506 -6.15234375 15.62109375 C-4.40616997 11.6492883 -3.14168647 7.53870791 -1.83203125 3.40625 C-1 1 -1 1 0 0 Z " fill="#B5B598" transform="translate(260,325)"/>
<path d="M0 0 C0.33 0 0.66 0 1 0 C1.84800767 7.692641 2.12152487 15.26291674 2 23 C-0.97 22.01 -3.94 21.02 -7 20 C-5.04068712 13.14240492 -2.75665244 6.57678502 0 0 Z " fill="#DBDAC6" transform="translate(263,363)"/>
<path d="M0 0 C0.33 0 0.66 0 1 0 C1 3.96 1 7.92 1 12 C-1.475 11.01 -1.475 11.01 -4 10 C-3.52449439 8.51965236 -3.04448784 7.04074979 -2.5625 5.5625 C-2.29566406 4.73878906 -2.02882813 3.91507812 -1.75390625 3.06640625 C-1 1 -1 1 0 0 Z " fill="#EAE9DC" transform="translate(264,374)"/>
</svg>