<svg xmlns="http://www.w3.org/2000/svg" version="1.1" width="500" height="500">
<path d="M0 0 C1.55655192 1.31592554 3.09964196 2.64803967 4.625 4 C5.54345703 4.79470703 5.54345703 4.79470703 6.48046875 5.60546875 C25.20768367 22.96135443 33.64048632 49.39596038 36.625 74 C36.625 75.98 36.625 77.96 36.625 80 C26.23 77.03 26.23 77.03 15.625 74 C15.25375 71.525 14.8825 69.05 14.5 66.5 C10.87587956 45.01518271 0.72409777 24.66180815 -17.04296875 11.46875 C-28.34041205 4.35344232 -41.47649468 3.3288607 -54.36157227 6.07617188 C-71.09194326 10.11726549 -84.5806168 18.48089716 -94.43359375 32.8125 C-106.06105471 51.90305965 -110.60629179 72.11378298 -110.625 94.3125 C-110.62567474 95.02897705 -110.62634949 95.7454541 -110.62704468 96.48364258 C-110.61048249 107.55275439 -110.15355612 118.23817777 -107.375 129 C-107.20339355 129.66805664 -107.03178711 130.33611328 -106.85498047 131.02441406 C-104.07253623 141.44303906 -99.93724219 151.24847759 -95.375 161 C-94.73498047 162.66869141 -94.73498047 162.66869141 -94.08203125 164.37109375 C-92.57866471 167.29068994 -92.57866471 167.29068994 -89.30078125 167.99609375 C-87.51220703 168.21458984 -87.51220703 168.21458984 -85.6875 168.4375 C-78.81407296 169.66464435 -74.67005557 171.4207444 -70.375 177 C-66.85946836 182.59471749 -65.64800376 187.45703388 -66.375 194 C-68.10051864 201.14099253 -71.53843481 204.95767306 -77.5 209.25 C-82.9719401 212.58074615 -88.12084314 212.59971367 -94.375 212 C-100.55015604 210.25072371 -104.9032227 206.31823211 -108.375 201 C-110.10774262 197.40485374 -110.64758137 194.54246626 -110.625 190.5625 C-110.63015625 189.65628906 -110.6353125 188.75007812 -110.640625 187.81640625 C-110.375 185 -110.375 185 -109.22192383 182.15625 C-108.1854008 178.29341642 -108.71181865 177.16030583 -110.55859375 173.68359375 C-111.07099609 172.68320068 -111.58339844 171.68280762 -112.11132812 170.65209961 C-112.67271484 169.59128174 -113.23410156 168.53046387 -113.8125 167.4375 C-130.12848786 134.93991897 -136.58016377 98.90064704 -128.375 63 C-128.21402832 62.29262695 -128.05305664 61.58525391 -127.88720703 60.85644531 C-124.03160834 44.70070902 -117.08999718 28.77324523 -106.375 16 C-105.63894531 15.09121094 -104.90289062 14.18242188 -104.14453125 13.24609375 C-77.817698 -17.63317722 -32.84356436 -25.60011965 0 0 Z " fill="#764ABC" transform="translate(296.375,69)"/>
<path d="M0 0 C2.81965231 2.81965231 3.26535843 6.11319504 4.1875 9.875 C4.37763672 10.59558594 4.56777344 11.31617188 4.76367188 12.05859375 C5.68148202 15.73660784 6.2727461 18.40529558 5 22 C3.03125 23.97265625 3.03125 23.97265625 0.5 26.0625 C-15.04878372 39.61215439 -24.79530028 56.83302893 -26.25 77.5625 C-25.93226252 92.55393211 -19.94751888 107.08298651 -9.49609375 117.81640625 C1.49162226 127.42850836 15.59133469 131.42063059 30 132 C30.67546875 132.03996094 31.3509375 132.07992187 32.046875 132.12109375 C52.18078593 132.7644706 70.59547509 126.5290331 88 117 C88.61504395 116.6709668 89.23008789 116.34193359 89.86376953 116.00292969 C111.45855086 104.4295577 135.68690547 85.54379427 144.83203125 61.84375 C145.09621914 58.94382709 143.46074295 57.04645059 141.9921875 54.65625 C139.33540424 50.22130472 139.27755504 44.94097674 140.49609375 39.98046875 C142.57934862 33.82486256 145.84627138 29.02913976 151.5 25.625 C157.6329202 22.87215514 165.13703529 22.54519758 171.4375 24.91796875 C177.4682615 28.44733485 181.75735203 33.34090931 184 40 C184.90979315 47.07734436 184.31886914 53.1905477 180 59 C176.69884511 62.67723582 173.76425142 64.78118445 169.04296875 66.203125 C164.14131909 67.96986724 162.71515473 70.89383065 160.5625 75.4375 C159.81009163 76.8902118 159.05087225 78.33941459 158.28515625 79.78515625 C157.71885498 80.85854248 157.71885498 80.85854248 157.14111328 81.95361328 C152.15996274 90.88643395 144.99945782 98.61793516 138 106 C137.33726074 106.7115625 137.33726074 106.7115625 136.66113281 107.4375 C112.58978873 133.16720391 75.83666201 150.61995373 40.52734375 152.31640625 C23.75056453 152.80819258 8.14123583 150.5494117 -7 143 C-7.98226562 142.52046875 -8.96453125 142.0409375 -9.9765625 141.546875 C-25.67836729 133.18880837 -36.08085261 119.82714265 -41.4375 102.9375 C-47.94669562 79.79045011 -44.53512798 56.45735884 -32.96533203 35.69482422 C-25.12893812 21.93654234 -13.28909499 8.66680108 0 0 Z " fill="#764ABC" transform="translate(149,187)"/>
<path d="M0 0 C3.39666872 1.96391751 6.08779092 4.29956421 8.625 7.3125 C8.625 7.9725 8.625 8.6325 8.625 9.3125 C9.78773438 9.28929687 10.95046875 9.26609375 12.1484375 9.2421875 C56.18615234 8.62474958 96.74909552 22.57502068 128.625 53.3125 C129.40359375 54.02792969 130.1821875 54.74335938 130.984375 55.48046875 C140.21818295 64.2067447 147.62106724 74.4725095 153.0625 85.9375 C153.36808838 86.58074219 153.67367676 87.22398437 153.98852539 87.88671875 C154.94049827 90.00607635 155.79574885 92.14206434 156.625 94.3125 C156.9854541 95.24143066 157.3459082 96.17036133 157.71728516 97.12744141 C160.6825996 105.5939345 161.24827893 113.34941764 161.14648438 122.21533203 C161.12494847 124.4428296 161.1464469 126.66712792 161.171875 128.89453125 C161.18799462 137.3402741 160.3008826 144.58200243 156.625 152.3125 C156.05809448 153.5049231 156.05809448 153.5049231 155.47973633 154.72143555 C145.97225217 173.79653553 127.71740645 185.4875875 108.171875 192.3046875 C88.88883438 197.78378935 66.73080046 197.48870904 47.625 191.3125 C46.87283203 191.07160645 46.12066406 190.83071289 45.34570312 190.58251953 C43.07269075 189.83516907 40.81554591 189.05543184 38.5625 188.25 C37.87631592 188.00491699 37.19013184 187.75983398 36.4831543 187.50732422 C34.58984375 186.77734375 34.58984375 186.77734375 31.625 185.3125 C31.295 184.3225 30.965 183.3325 30.625 182.3125 C31.98044922 181.28189453 31.98044922 181.28189453 33.36328125 180.23046875 C34.55477653 179.32042905 35.74617786 178.41026634 36.9375 177.5 C37.53240234 177.04818359 38.12730469 176.59636719 38.74023438 176.13085938 C42.19719759 173.5086454 42.19719759 173.5086454 45.23046875 170.42578125 C46.625 169.3125 46.625 169.3125 48.93359375 169.50390625 C51.86454937 170.38446911 54.77977673 171.29517142 57.6875 172.25 C76.88455476 178.16174699 97.3962809 178.86544383 115.625 169.5 C128.73259249 161.63152008 136.98424651 150.12183556 141.17138672 135.39013672 C145.23227255 116.79049278 138.0556348 99.41230385 128.55859375 83.859375 C112.48134546 59.34379197 86.28058362 43.66073966 58.625 35.3125 C57.96677246 35.11285645 57.30854492 34.91321289 56.63037109 34.70751953 C41.30952426 30.19017604 25.55262824 28.84480455 9.625 29.3125 C9.24408203 30.45138672 9.24408203 30.45138672 8.85546875 31.61328125 C6.44100332 36.90977527 1.40178787 39.56947962 -3.8125 41.75 C-10.59270901 42.82055932 -16.50700343 42.04667964 -22.375 38.3125 C-27.21525787 34.16370754 -30.88904392 29.87617789 -31.76171875 23.4765625 C-32.00081278 16.93033272 -31.41559507 11.60544325 -27.375 6.3125 C-20.06638363 -1.44641027 -10.12419824 -4.74511758 0 0 Z " fill="#764ABC" transform="translate(244.375,143.6875)"/>
<path d="M0 0 C1.18613892 0.00785522 1.18613892 0.00785522 2.39624023 0.01586914 C3.67724609 0.02070313 3.67724609 0.02070313 4.98413086 0.02563477 C5.88196289 0.03401367 6.77979492 0.04239258 7.70483398 0.05102539 C8.6065332 0.05553711 9.50823242 0.06004883 10.43725586 0.06469727 C12.67234712 0.07652315 14.90730835 0.09300319 17.14233398 0.11352539 C17.16215332 1.33982666 17.18197266 2.56612793 17.20239258 3.82958984 C17.27841017 8.37521047 17.36713345 12.92050938 17.4597168 17.46582031 C17.49802246 19.4338547 17.53287253 21.40195949 17.56420898 23.37011719 C17.60982509 26.19760311 17.66782496 29.02460373 17.72827148 31.85180664 C17.73982269 32.73314774 17.7513739 33.61448883 17.76327515 34.52253723 C17.78314484 35.34316147 17.80301453 36.16378571 17.82348633 37.00927734 C17.83681 37.7309761 17.85013367 38.45267487 17.86386108 39.19624329 C18.04959553 41.43954168 18.04959553 41.43954168 20.14233398 44.11352539 C24.52409317 44.51924383 27.32728146 44.22272844 31.14233398 42.11352539 C31.13709717 40.91228027 31.13186035 39.71103516 31.12646484 38.47338867 C31.10839746 34.02678163 31.09689558 29.58017786 31.08740234 25.13354492 C31.08236612 23.20710708 31.07553686 21.28067308 31.06689453 19.35424805 C31.05479791 16.58910171 31.04909866 13.82400581 31.04467773 11.05883789 C31.03951645 10.19420929 31.03435516 9.32958069 31.02903748 8.43875122 C31.02846228 2.3412688 31.02846228 2.3412688 32.14233398 0.11352539 C38.41233398 0.11352539 44.68233398 0.11352539 51.14233398 0.11352539 C52.39700548 2.62286838 52.30106956 4.39729894 52.34765625 7.20581055 C52.37757408 8.79723373 52.37757408 8.79723373 52.40809631 10.42080688 C52.42480881 11.56979462 52.4415213 12.71878235 52.45874023 13.90258789 C52.47952133 15.07614838 52.50030243 16.24970886 52.52171326 17.45883179 C52.58725382 21.21866843 52.64611474 24.97857661 52.70483398 28.73852539 C52.74801491 31.28280371 52.79162905 33.82707472 52.83569336 36.37133789 C52.9429398 42.61865746 53.04469778 48.86604865 53.14233398 55.11352539 C54.72079941 52.90673694 56.29886472 50.69966416 57.87670898 48.49243164 C58.31805176 47.87549438 58.75939453 47.25855713 59.21411133 46.6229248 C65.33004795 38.72250564 65.33004795 38.72250564 70.14233398 30.11352539 C69.13750049 25.79413698 66.43248032 22.44046614 63.89233398 18.86352539 C63.0859474 17.71536662 62.27995955 16.5669277 61.47436523 15.41821289 C60.69712959 14.31657411 59.91979172 13.21500745 59.14233398 12.11352539 C57.9466317 10.41092295 56.75779193 8.70345224 55.57983398 6.98852539 C54.86633789 5.9637207 54.86633789 5.9637207 54.13842773 4.91821289 C53.14233398 3.11352539 53.14233398 3.11352539 53.14233398 0.11352539 C56.41299964 0.02645648 59.68336763 -0.02688702 62.95483398 -0.07397461 C63.88360352 -0.09911133 64.81237305 -0.12424805 65.76928711 -0.15014648 C66.66196289 -0.15981445 67.55463867 -0.16948242 68.47436523 -0.17944336 C69.29654541 -0.19515381 70.11872559 -0.21086426 70.96582031 -0.22705078 C73.68494101 0.19843137 74.44952773 0.98690461 76.14233398 3.11352539 C77.56154893 5.30585353 78.93134678 7.49719887 80.26733398 9.73852539 C82.42342667 13.64297091 82.42342667 13.64297091 85.14233398 17.11352539 C85.24545898 16.51540039 85.34858398 15.91727539 85.45483398 15.30102539 C86.14233398 13.11352539 86.14233398 13.11352539 87.52514648 11.76586914 C89.99777131 9.23949161 91.34025707 6.19042113 92.95874023 3.07446289 C94.14233398 1.11352539 94.14233398 1.11352539 96.14233398 0.11352539 C97.51781555 0.03043901 98.89719195 0.00616524 100.27514648 0.01586914 C101.08081055 0.0190918 101.88647461 0.02231445 102.71655273 0.02563477 C103.97918945 0.03820312 103.97918945 0.03820312 105.26733398 0.05102539 C106.11682617 0.05553711 106.96631836 0.06004883 107.84155273 0.06469727 C109.94184307 0.07649665 112.04209729 0.09443233 114.14233398 0.11352539 C113.58476122 3.97619246 112.53129055 6.41536995 110.27124023 9.58227539 C109.69696289 10.40083008 109.12268555 11.21938477 108.53100586 12.06274414 C107.92836914 12.90450195 107.32573242 13.74625977 106.70483398 14.61352539 C105.5141393 16.28741911 104.32778708 17.96441202 103.14624023 19.64477539 C102.61844971 20.38276367 102.09065918 21.12075195 101.546875 21.88110352 C100.04971673 24.26073418 98.95887644 26.42064945 98.14233398 29.11352539 C99.14247679 31.57093148 100.1173863 33.46692517 101.51733398 35.67602539 C101.88149414 36.28373779 102.2456543 36.8914502 102.62084961 37.51757812 C105.74282929 42.6644267 109.15287852 47.61083811 112.67358398 52.49243164 C114.26684582 55.33572603 114.46658076 56.91158845 114.14233398 60.11352539 C111.41209509 60.22189209 108.68618856 60.30099233 105.95483398 60.36352539 C104.80144531 60.41379883 104.80144531 60.41379883 103.62475586 60.46508789 C99.89325299 60.52914803 97.68955231 60.4244449 94.39233398 58.55102539 C91.60789399 55.53454873 89.46461439 52.35873989 87.32983398 48.86352539 C86.92313477 48.21383789 86.51643555 47.56415039 86.09741211 46.89477539 C85.10441481 45.30597971 84.12224858 43.71042324 83.14233398 42.11352539 C82.52745117 43.0893457 81.91256836 44.06516602 81.27905273 45.07055664 C80.46284966 46.35584194 79.64643215 47.64099107 78.82983398 48.92602539 C78.42571289 49.56862305 78.0215918 50.2112207 77.60522461 50.87329102 C77.20883789 51.49526367 76.81245117 52.11723633 76.40405273 52.75805664 C75.86204224 53.61427612 75.86204224 53.61427612 75.30908203 54.48779297 C73.15501177 57.48924805 71.70173457 58.92705853 68.14233398 60.11352539 C65.46605366 60.18440146 62.81722385 60.20696273 60.14233398 60.17602539 C59.41788086 60.17151367 58.69342773 60.16700195 57.94702148 60.16235352 C56.01209754 60.14985862 54.07721034 60.13197231 52.14233398 60.11352539 C50.36203891 60.11352539 48.58097949 60.13882851 46.80249023 60.21899414 C45.94526367 60.24606445 45.08803711 60.27313477 44.20483398 60.30102539 C42.92286133 60.35323242 42.92286133 60.35323242 41.61499023 60.40649414 C38.60717061 60.05011741 37.27694299 59.23822902 35.14233398 57.11352539 C35.14233398 56.12352539 35.14233398 55.13352539 35.14233398 54.11352539 C34.59963867 54.46286133 34.05694336 54.81219727 33.49780273 55.17211914 C32.78237305 55.6271582 32.06694336 56.08219727 31.32983398 56.55102539 C30.26829102 57.2297168 30.26829102 57.2297168 29.18530273 57.92211914 C23.89242014 61.00879063 18.08253016 60.65354322 12.14233398 60.11352539 C6.62096779 58.43486827 2.10198228 53.97907723 -0.85766602 49.11352539 C-2.84103776 43.47046884 -3.13799902 38.44741178 -3.08813477 32.49633789 C-3.08767654 31.59857635 -3.08721832 30.70081482 -3.08674622 29.77584839 C-3.08374084 27.89164903 -3.07590634 26.00745177 -3.06347656 24.12329102 C-3.04509107 21.22671823 -3.042968 18.33046324 -3.04321289 15.43383789 C-3.03830194 13.60050177 -3.03247547 11.76716782 -3.02563477 9.93383789 C-3.02452194 9.06413361 -3.02340912 8.19442932 -3.02226257 7.29837036 C-2.96537529 0.18121954 -2.96537529 0.18121954 0 0 Z " fill="#303030" transform="translate(289.857666015625,379.886474609375)"/>
<path d="M0 0 C45.65346535 0 45.65346535 0 54.0625 7.9375 C55.13177734 8.91009766 55.13177734 8.91009766 56.22265625 9.90234375 C60.15495858 14.54332474 60.91340762 20.08285391 61 26 C60.31961713 32.55543498 58.4417477 38.08952879 53.25390625 42.4765625 C48.51990223 46 48.51990223 46 46 46 C46 46.66 46 47.32 46 48 C46.60585937 48.24492187 47.21171875 48.48984375 47.8359375 48.7421875 C50.43378137 50.25212564 51.17913656 51.50825329 52.625 54.125 C54.5265266 57.46973652 56.46661115 60.76683507 58.5390625 64.0078125 C58.98556152 64.7076123 59.43206055 65.40741211 59.89208984 66.12841797 C60.78154634 67.5180938 61.67496089 68.90524609 62.57275391 70.28955078 C64.99311473 74.0994303 66.77258686 77.60858854 68 82 C64.95778935 82.08132642 61.9177762 82.14065374 58.875 82.1875 C58.0190625 82.21263672 57.163125 82.23777344 56.28125 82.26367188 C51.11291007 82.32330657 47.36344266 82.08617936 43 79 C40.91015625 76.28515625 40.91015625 76.28515625 39.0625 73.0625 C38.73185547 72.49490967 38.40121094 71.92731934 38.06054688 71.3425293 C37.37395238 70.16109633 36.69381289 68.97588957 36.02001953 67.78710938 C35.01449728 66.02539974 33.98006245 64.28452061 32.93359375 62.546875 C28 54.29431818 28 54.29431818 28 52 C24.535 52.495 24.535 52.495 21 53 C21.01571045 53.80743652 21.0314209 54.61487305 21.04760742 55.44677734 C21.10979679 59.08944756 21.14894009 62.73200634 21.1875 66.375 C21.21263672 67.64601563 21.23777344 68.91703125 21.26367188 70.2265625 C21.27333984 71.43828125 21.28300781 72.65 21.29296875 73.8984375 C21.3086792 75.01911621 21.32438965 76.13979492 21.34057617 77.29443359 C21.22818604 78.18727051 21.1157959 79.08010742 21 80 C17.24240815 82.50506123 14.27972423 82.2604463 9.9375 82.1875 C9.20466797 82.18685547 8.47183594 82.18621094 7.71679688 82.18554688 C2.28125 82.140625 2.28125 82.140625 0 81 C0 54.27 0 27.54 0 0 Z M20 16 C20 22.93 20 29.86 20 37 C21.876875 37.04125 23.75375 37.0825 25.6875 37.125 C26.74324219 37.14820313 27.79898438 37.17140625 28.88671875 37.1953125 C32.08447372 36.99470052 34.18218831 36.50547409 37 35 C40.22426894 29.62621843 40.41600497 26.06859273 39 20 C37.12386073 17.35634921 36.14276157 17.04758719 33 16 C28.66328697 15.86498403 24.33988266 15.95703086 20 16 Z " fill="#303030" transform="translate(106,358)"/>
<path d="M0 0 C6.6 0 13.2 0 20 0 C20 27.39 20 54.78 20 83 C16.31587001 84.84206499 12.03017014 84.3617633 8 84 C4.31376989 82.38727433 3.24645 81.369675 1 78 C0.2575 78.61875 -0.485 79.2375 -1.25 79.875 C-7.29951222 84.54962308 -12.46757806 84.78194656 -20 84 C-25.7070307 82.25124013 -29.69272916 77.7849876 -33 73 C-38.19483656 62.78945918 -38.34433595 51.43928169 -35.04296875 40.57421875 C-32.06755835 33.23041556 -26.40269355 27.10128556 -19.25 23.6875 C-12.5713788 22.27471475 -7.35849309 22.45660276 -1 25 C-0.67 16.75 -0.34 8.5 0 0 Z M-13 40 C-17.31877255 46.40369722 -16.81936359 54.55343093 -16 62 C-14.82705377 65.37009022 -14.82705377 65.37009022 -13 68 C-7.15442726 69.87499503 -5.78025549 68.89012775 0 66 C0.33 57.75 0.66 49.5 1 41 C-6.34214016 37.46930799 -6.34214016 37.46930799 -13 40 Z " fill="#303030" transform="translate(261,356)"/>
<path d="M0 0 C5.11044351 3.73819479 9.34718654 8.82162589 11 15 C12.18876242 27.15779752 12.18876242 27.15779752 9.92871094 30.66015625 C7.03899585 32.66759377 4.10729882 32.47997562 0.70703125 32.51171875 C0.00100266 32.52966995 -0.70502594 32.54762115 -1.43244934 32.56611633 C-3.68407241 32.62023178 -5.93548343 32.65411722 -8.1875 32.6875 C-9.71552431 32.72067219 -11.24352063 32.75516177 -12.77148438 32.79101562 C-16.51416989 32.87595825 -20.25679241 32.94276248 -24 33 C-22.93601798 37.24675184 -22.93601798 37.24675184 -20.14453125 40.35546875 C-13.43796516 42.37110337 -8.23157265 40.82184422 -2 38 C1.125 37.5 1.125 37.5 4 38 C6.75 40.375 6.75 40.375 9 43 C9.66 43.66 10.32 44.32 11 45 C11 45.99 11 46.98 11 48 C8.8046875 49.75390625 8.8046875 49.75390625 5.875 51.5625 C4.92367187 52.16191406 3.97234375 52.76132812 2.9921875 53.37890625 C-5.13544593 57.78225857 -13.95547543 58.10437486 -23 57 C-31.80568837 54.36265274 -37.10024659 48.75302903 -41.88671875 41.16015625 C-45.57410601 34.00533115 -45.9484889 26.89847836 -45 19 C-42.21430815 10.54378951 -37.52007018 2.84495924 -29.4609375 -1.30859375 C-19.17173018 -5.49673589 -9.90542359 -5.15021257 0 0 Z M-23 13 C-23.65555119 15.52733235 -23.65555119 15.52733235 -24 18 C-24.99 18.495 -24.99 18.495 -26 19 C-19.73 19 -13.46 19 -7 19 C-7.51226317 14.23492561 -7.51226317 14.23492561 -9.625 12.1875 C-13.87254568 10.06372716 -19.18921867 9.92206124 -23 13 Z " fill="#303030" transform="translate(212,383)"/>
<path d="" fill="#303030" transform="translate(0,0)"/>
</svg>