<svg xmlns="http://www.w3.org/2000/svg" version="1.1" width="553" height="557">
<path d="M0 0 C1.77564113 -0.00874829 1.77564113 -0.00874829 3.58715379 -0.01767331 C5.54747732 -0.01200433 5.54747732 -0.01200433 7.54740334 -0.00622082 C8.94473844 -0.00923969 10.3420719 -0.01312784 11.73940241 -0.01781338 C15.58813312 -0.0281364 19.43677112 -0.02590067 23.28550959 -0.02163279 C27.43284083 -0.01917332 31.58014931 -0.02817004 35.72747231 -0.03567028 C43.85618348 -0.04844133 51.98486165 -0.05020796 60.11358117 -0.04787002 C66.71911582 -0.04608928 73.32464043 -0.04783124 79.93017387 -0.05209446 C81.33866994 -0.05298724 81.33866994 -0.05298724 82.77562047 -0.05389806 C84.68301021 -0.05510978 86.59039995 -0.05632391 88.4977897 -0.05754044 C106.39909306 -0.06842537 124.30037761 -0.06624905 142.20168205 -0.06015559 C158.58754853 -0.05498629 174.97335557 -0.06624054 191.3592103 -0.08525381 C208.17278956 -0.10461424 224.98634068 -0.11289133 241.79993117 -0.10913056 C251.24402803 -0.10721569 260.6880743 -0.10973374 270.13216209 -0.1238451 C278.1725104 -0.13573707 286.21277698 -0.13718845 294.25312637 -0.12505493 C298.35700979 -0.11915067 302.46074355 -0.11810928 306.56461716 -0.13005733 C310.31998021 -0.14086383 314.07506771 -0.13787568 317.83041759 -0.12379565 C319.83575992 -0.11987133 321.84111425 -0.13073847 323.84642828 -0.14209253 C325.62989264 -0.13128271 325.62989264 -0.13128271 327.4493866 -0.12025452 C328.47566331 -0.12030953 329.50194003 -0.12036455 330.55931604 -0.12042123 C334.97399687 0.47252765 337.43160629 2.06300025 340.1387409 5.57305068 C341.53181017 8.65559778 341.73050014 10.7817264 341.73923111 14.15727425 C341.74952115 15.34665039 341.75981118 16.53602654 341.77041304 17.76144439 C341.76644935 19.06434565 341.76248567 20.3672469 341.75840187 21.70963001 C341.76472338 23.1106821 341.7723385 24.51172886 341.78113592 25.91276759 C341.80143867 29.76260813 341.80296333 33.61226246 341.80134463 37.46214783 C341.80278868 41.61429839 341.82137294 45.76637807 341.83759499 49.91849232 C341.86971694 58.99695873 341.87952891 68.07536834 341.88523722 77.15388417 C341.8889877 82.82234246 341.8977949 88.49078556 341.90773582 94.15923595 C341.93467491 109.85352734 341.95718476 125.54780405 341.9596138 141.24212074 C341.95976937 142.24642047 341.95992495 143.25072019 341.96008524 144.28545324 C341.96037629 146.32140775 341.96066166 148.35736227 341.96094139 150.39331678 C341.96108424 151.40396648 341.9612271 152.41461617 341.96137428 153.45589161 C341.96151395 154.46777464 341.96165362 155.47965767 341.96179752 156.52220383 C341.96493349 172.9221761 342.00153012 189.32188439 342.05301054 205.72176949 C342.10544312 222.55916677 342.13172689 239.39643366 342.13116491 256.23391455 C342.13141764 265.68768529 342.14267535 275.14115259 342.18234062 284.59484768 C342.21594068 292.64394275 342.22543133 300.69261622 342.20358367 308.74175958 C342.19314111 312.84830545 342.19398124 316.95402545 342.22534752 321.06048298 C342.25379717 324.82187435 342.24978143 328.58179916 342.22018854 332.34316882 C342.21277791 334.34425472 342.23977381 336.34537731 342.26808989 338.34627658 C342.18941282 344.31254858 341.98366223 348.29011583 337.99429321 352.91549683 C336.80470878 354.05517305 335.59088891 355.17027367 334.35053444 356.25447559 C333.28956772 357.33429833 332.23435384 358.41984617 331.18842506 359.51424122 C330.13034942 360.56556231 329.06973803 361.61433668 328.00678444 362.66072559 C327.14760414 363.51422596 327.14760414 363.51422596 326.27106667 364.38496876 C323.86114162 366.77880246 321.44518965 369.16651802 319.02973366 371.55476856 C310.10094408 380.38723553 310.10094408 380.38723553 301.69770241 389.71590137 C300.00119989 391.65344376 298.15407872 393.31219296 296.16303444 394.94197559 C293.94576122 396.82008657 292.17515099 398.47370491 290.35053444 400.75447559 C288.59638609 402.94716103 286.98601434 404.46907436 284.85053444 406.25447559 C280.34419942 410.07469569 276.46242255 414.38696787 272.56342506 418.81111622 C269.97701565 421.69819146 267.80011981 423.56784204 264.35053444 425.25447559 C263.90202897 426.16179133 263.90202897 426.16179133 263.44446278 427.08743668 C262.2531347 429.44742153 260.94218226 430.91962114 259.08205605 432.79037952 C258.40787636 433.47308918 257.73369667 434.15579884 257.0390873 434.85919666 C256.29986534 435.59751225 255.56064339 436.33582783 254.79902077 437.09651661 C254.01993355 437.88232105 253.24084633 438.6681255 252.43815041 439.4777422 C249.85827074 442.07663619 247.27089446 444.6679042 244.68256569 447.25838184 C242.88600412 449.06136916 241.08959404 450.86450743 239.29332924 452.66779041 C235.5248682 456.448233 231.75233252 460.2245527 227.97724342 463.99837208 C223.62148673 468.35292813 219.27699871 472.71850476 214.93767339 477.08942944 C210.75509159 481.30137412 206.56142816 485.50216182 202.36354065 489.6988554 C200.58255215 491.48220317 198.80480395 493.2687931 197.03038406 495.05867672 C194.54600102 497.56267433 192.04924068 500.05365791 189.54902077 502.54182911 C188.81991997 503.28216892 188.09081917 504.02250874 187.3396244 504.78528309 C183.25884559 508.81632398 179.88149197 511.57025681 174.35053444 513.25447559 C171.53803444 512.37947559 171.53803444 512.37947559 169.35053444 510.25447559 C167.74020915 505.62260922 167.09631618 501.52949649 167.07206154 496.64218616 C167.05531631 494.70932507 167.05531631 494.70932507 167.0382328 492.73741627 C167.03586838 491.32716876 167.03369263 489.91692092 167.03168678 488.50667286 C167.02237956 487.00811699 167.01220971 485.50956627 167.0012455 484.01102161 C166.9740209 479.95785727 166.95881853 475.90472755 166.94581747 471.85149598 C166.93015384 467.61004478 166.90337395 463.36866392 166.87778664 459.12726307 C166.83105599 451.10226452 166.79428427 443.07725266 166.76111376 435.05218786 C166.72285194 425.91309904 166.67345244 416.77408097 166.62312961 407.63505185 C166.51989477 388.84157825 166.43060695 370.04806144 166.35053444 351.25447559 C157.56599668 350.23906852 148.86225784 350.12951481 140.02851295 350.17268848 C138.51615945 350.17625225 137.00380475 350.17933613 135.49144936 350.18198109 C132.25748254 350.18848778 129.0235443 350.19801712 125.78959274 350.20987606 C120.67546775 350.22828213 115.56134935 350.23779634 110.44719887 350.24579334 C95.91274992 350.26986449 81.37834289 350.30594514 66.84394264 350.35042286 C58.79949704 350.37496197 50.75506736 350.39232647 42.71058983 350.40198225 C37.62616335 350.40852208 32.54186907 350.42407163 27.45748818 350.44629967 C24.30084143 350.45801916 21.14422691 350.46139636 17.98756027 350.46239758 C16.52340709 350.46454667 15.05925433 350.47014392 13.59512901 350.47942829 C11.59811018 350.49160366 9.60102259 350.49028174 7.60396767 350.4882555 C6.48629289 350.49139791 5.36861811 350.49454031 4.21707439 350.49777794 C1.39267276 350.25805215 -0.25523212 349.72061326 -2.64946556 348.25447559 C-2.64946556 347.59447559 -2.64946556 346.93447559 -2.64946556 346.25447559 C-3.30946556 346.25447559 -3.96946556 346.25447559 -4.64946556 346.25447559 C-7.21550454 342.35493212 -7.10431824 338.14049408 -7.26836205 333.62874317 C-7.32486632 332.26383228 -7.32486632 332.26383228 -7.38251209 330.87134743 C-7.8798593 317.13652579 -7.77619368 303.38524438 -7.7508595 289.6435554 C-7.74451442 285.60776142 -7.7440135 281.5719663 -7.74283409 277.5361681 C-7.7397531 269.92951063 -7.73158432 262.3228679 -7.7214846 254.71621686 C-7.71022177 246.04116904 -7.70478765 237.36612044 -7.69978917 228.6910671 C-7.68939816 210.87886164 -7.67186283 193.06666981 -7.64946556 175.25447559 C-8.43853137 175.25631918 -9.22759718 175.25816277 -10.04057407 175.26006222 C-29.23628099 175.30422222 -48.43197778 175.3373229 -67.62772465 175.35809994 C-76.91062494 175.36841449 -86.19349133 175.38247828 -95.47636986 175.4053545 C-103.56689613 175.42528286 -111.65739786 175.43819073 -119.74794799 175.44265258 C-124.03221062 175.4452609 -128.31640302 175.45139534 -132.60064316 175.46593571 C-136.63315655 175.47951085 -140.66557078 175.48369837 -144.69810486 175.48069096 C-146.1779503 175.48124115 -147.65779906 175.48521903 -149.13762474 175.49288654 C-151.15897789 175.50284614 -153.18038425 175.49925086 -155.20175743 175.49498463 C-156.33279742 175.49682821 -157.46383741 175.4986718 -158.62915134 175.50057125 C-161.74800406 175.24644666 -163.88758417 174.71180749 -166.64946556 173.25447559 C-169.14137317 169.51661417 -169.12354906 167.68104734 -168.64946556 163.25447559 C-166.89287376 160.70320606 -166.89287376 160.70320606 -164.45024681 158.37166309 C-163.57046165 157.51443653 -162.6906765 156.65720997 -161.78423119 155.77400684 C-160.85288353 154.90131153 -159.92153587 154.02861622 -158.96196556 153.12947559 C-157.59394798 151.80883106 -157.59394798 151.80883106 -156.19829369 150.46150684 C-154.49107341 148.81512569 -152.77674524 147.17605943 -151.05303001 145.54695606 C-148.54470484 143.15455653 -146.09369828 140.71218478 -143.64946556 138.25447559 C-142.61000434 137.22491691 -141.56977133 136.19613614 -140.52837181 135.16853809 C-133.50631919 128.27848372 -133.50631919 128.27848372 -126.96196556 120.94197559 C-125.81727806 119.61166309 -125.81727806 119.61166309 -124.64946556 118.25447559 C-123.98946556 118.25447559 -123.32946556 118.25447559 -122.64946556 118.25447559 C-122.64946556 117.59447559 -122.64946556 116.93447559 -122.64946556 116.25447559 C-121.39165306 115.02010059 -121.39165306 115.02010059 -119.52446556 113.50447559 C-115.21451646 109.84684312 -111.2079005 105.93485632 -107.21196556 101.94197559 C-106.2710305 101.00756641 -106.2710305 101.00756641 -105.31108665 100.05428028 C-104.72279076 99.46421192 -104.13449486 98.87414356 -103.52837181 98.26619434 C-102.73281883 97.46894947 -102.73281883 97.46894947 -101.92119408 96.65559864 C-100.54002971 95.26059155 -100.54002971 95.26059155 -99.64946556 93.25447559 C-98.98946556 93.25447559 -98.32946556 93.25447559 -97.64946556 93.25447559 C-97.64946556 92.59447559 -97.64946556 91.93447559 -97.64946556 91.25447559 C-95.99943728 89.90060624 -94.33202686 88.56769417 -92.64946556 87.25447559 C-92.31946556 86.59447559 -91.98946556 85.93447559 -91.64946556 85.25447559 C-90.98946556 85.25447559 -90.32946556 85.25447559 -89.64946556 85.25447559 C-89.64946556 84.59447559 -89.64946556 83.93447559 -89.64946556 83.25447559 C-88.98946556 83.25447559 -88.32946556 83.25447559 -87.64946556 83.25447559 C-87.64946556 82.59447559 -87.64946556 81.93447559 -87.64946556 81.25447559 C-86.98946556 81.25447559 -86.32946556 81.25447559 -85.64946556 81.25447559 C-84.65946556 79.27447559 -84.65946556 79.27447559 -83.64946556 77.25447559 C-82.98946556 77.25447559 -82.32946556 77.25447559 -81.64946556 77.25447559 C-81.64946556 76.59447559 -81.64946556 75.93447559 -81.64946556 75.25447559 C-79.96977806 73.63338184 -79.96977806 73.63338184 -77.77446556 71.81697559 C-75.18752835 69.67046676 -73.53762182 68.08670998 -71.64946556 65.25447559 C-70.98946556 65.25447559 -70.32946556 65.25447559 -69.64946556 65.25447559 C-69.64946556 64.59447559 -69.64946556 63.93447559 -69.64946556 63.25447559 C-68.98946556 63.25447559 -68.32946556 63.25447559 -67.64946556 63.25447559 C-67.64946556 62.59447559 -67.64946556 61.93447559 -67.64946556 61.25447559 C-66.00595099 59.89270638 -64.334239 58.56485493 -62.64946556 57.25447559 C-60.02620718 54.75918104 -57.6858411 52.30124415 -55.46196556 49.44197559 C-54.86384056 48.72010059 -54.26571556 47.99822559 -53.64946556 47.25447559 C-52.98946556 47.25447559 -52.32946556 47.25447559 -51.64946556 47.25447559 C-51.64946556 46.59447559 -51.64946556 45.93447559 -51.64946556 45.25447559 C-50.98946556 45.25447559 -50.32946556 45.25447559 -49.64946556 45.25447559 C-49.64946556 44.59447559 -49.64946556 43.93447559 -49.64946556 43.25447559 C-48.98946556 43.25447559 -48.32946556 43.25447559 -47.64946556 43.25447559 C-47.64946556 42.59447559 -47.64946556 41.93447559 -47.64946556 41.25447559 C-46.98946556 41.25447559 -46.32946556 41.25447559 -45.64946556 41.25447559 C-45.64946556 40.59447559 -45.64946556 39.93447559 -45.64946556 39.25447559 C-44.98946556 39.25447559 -44.32946556 39.25447559 -43.64946556 39.25447559 C-43.64946556 38.59447559 -43.64946556 37.93447559 -43.64946556 37.25447559 C-41.77446556 35.12947559 -41.77446556 35.12947559 -39.64946556 33.25447559 C-38.98946556 33.25447559 -38.32946556 33.25447559 -37.64946556 33.25447559 C-37.44321556 32.71822559 -37.23696556 32.18197559 -37.02446556 31.62947559 C-35.1169613 28.33469551 -32.60127172 25.66083931 -29.64946556 23.25447559 C-28.98946556 23.25447559 -28.32946556 23.25447559 -27.64946556 23.25447559 C-27.64946556 22.59447559 -27.64946556 21.93447559 -27.64946556 21.25447559 C-26.98946556 21.25447559 -26.32946556 21.25447559 -25.64946556 21.25447559 C-25.64946556 20.59447559 -25.64946556 19.93447559 -25.64946556 19.25447559 C-24.98946556 19.25447559 -24.32946556 19.25447559 -23.64946556 19.25447559 C-23.64946556 18.59447559 -23.64946556 17.93447559 -23.64946556 17.25447559 C-22.98946556 17.25447559 -22.32946556 17.25447559 -21.64946556 17.25447559 C-21.64946556 16.59447559 -21.64946556 15.93447559 -21.64946556 15.25447559 C-20.98946556 15.25447559 -20.32946556 15.25447559 -19.64946556 15.25447559 C-19.64946556 14.59447559 -19.64946556 13.93447559 -19.64946556 13.25447559 C-18.98946556 13.25447559 -18.32946556 13.25447559 -17.64946556 13.25447559 C-17.64946556 12.59447559 -17.64946556 11.93447559 -17.64946556 11.25447559 C-16.98946556 11.25447559 -16.32946556 11.25447559 -15.64946556 11.25447559 C-15.64946556 10.59447559 -15.64946556 9.93447559 -15.64946556 9.25447559 C-14.98946556 9.25447559 -14.32946556 9.25447559 -13.64946556 9.25447559 C-13.64946556 8.59447559 -13.64946556 7.93447559 -13.64946556 7.25447559 C-12.98946556 7.25447559 -12.32946556 7.25447559 -11.64946556 7.25447559 C-11.31946556 6.26447559 -10.98946556 5.27447559 -10.64946556 4.25447559 C-9.98946556 4.25447559 -9.32946556 4.25447559 -8.64946556 4.25447559 C-8.64946556 3.59447559 -8.64946556 2.93447559 -8.64946556 2.25447559 C-5.22832495 -0.02628481 -4.01986386 0.00339619 0 0 Z " fill="#8E78FC" transform="translate(171.6494655609131,41.745524406433105)"/>
<path d="M0 0 C1.14852689 -0.0039821 2.29705379 -0.00796419 3.48038453 -0.01206696 C5.3816233 -0.00332844 5.3816233 -0.00332844 7.32127094 0.00558662 C8.67679545 0.00471491 10.03231963 0.00296455 11.387842 0.00040829 C15.12082306 -0.00407592 18.85368994 0.00395311 22.58665645 0.01396441 C26.60913621 0.02258121 30.63160926 0.01968001 34.65409565 0.01815987 C41.62601663 0.01710989 48.59790024 0.02339823 55.56981182 0.03463554 C65.65008745 0.05087236 75.73034497 0.05609668 85.81063227 0.05861153 C102.16423045 0.06299149 118.51780871 0.07630876 134.87139606 0.09521675 C150.7597414 0.11356776 166.64808133 0.12772807 182.53643513 0.13623238 C183.51538151 0.13675782 184.49432789 0.13728327 185.50293931 0.13782464 C190.41390274 0.14043467 195.32486621 0.14296209 200.23582971 0.14544845 C240.99335332 0.16619033 281.750855 0.20142405 322.50835896 0.24609566 C322.50835896 0.57609566 322.50835896 0.90609566 322.50835896 1.24609566 C321.84139378 1.24783191 321.1744286 1.24956816 320.48725235 1.25135702 C280.94722953 1.35441131 241.40722345 1.46252934 201.86723257 1.5772126 C197.11837637 1.59098198 192.36952004 1.60470911 187.62066364 1.61841011 C186.20256098 1.62250257 186.20256098 1.62250257 184.75580977 1.6266777 C169.4530707 1.67073863 154.15032436 1.71137715 138.84757258 1.75074827 C123.14260084 1.79123051 107.43764256 1.83539666 91.73269069 1.88297421 C82.04388896 1.91221021 72.35508817 1.93858143 62.66626887 1.96127463 C56.0200173 1.97711693 49.37378218 1.99654135 42.72754891 2.01876407 C38.89450663 2.03147525 35.06147684 2.04262481 31.2284193 2.04951477 C27.0674016 2.05703565 22.90644463 2.07210873 18.74545002 2.08787727 C16.93899673 2.08934443 16.93899673 2.08934443 15.09604943 2.09084123 C13.97190255 2.09631568 12.84775566 2.10179012 11.68954372 2.10743046 C10.25078339 2.11141752 10.25078339 2.11141752 8.7829572 2.11548513 C4.34559919 2.29247346 -0.07279404 2.80421096 -4.49164104 3.24609566 C-4.16164104 58.68609566 -3.83164104 114.12609566 -3.49164104 171.24609566 C51.61835896 171.57609566 106.72835896 171.90609566 163.50835896 172.24609566 C163.50835896 172.90609566 163.50835896 173.56609566 163.50835896 174.24609566 C164.12710896 174.53484566 164.74585896 174.82359566 165.38335896 175.12109566 C167.75326816 176.37575347 169.19426518 177.37627264 170.12347031 179.94952965 C170.63223955 182.9852704 170.65019936 185.91209141 170.66657734 188.99115181 C170.67151532 189.66835565 170.67645329 190.34555949 170.68154091 191.04328465 C170.69689153 193.3110812 170.7052699 195.57884949 170.71368122 197.84668159 C170.72326166 199.47286922 170.73327184 201.09905436 170.74368 202.72523689 C170.77071714 207.1401326 170.79173317 211.55503899 170.81168199 215.96997166 C170.83354886 220.58378165 170.86093413 225.19755877 170.88773823 229.81134224 C170.93765561 238.54831018 170.98259799 247.28529637 171.02576059 256.0223 C171.07514111 265.96902085 171.13005623 275.91570872 171.18544018 285.86239767 C171.29924558 306.32359961 171.40608778 326.78483303 171.50835896 347.24609566 C192.96983511 347.39992963 214.43134425 347.54796477 235.8929081 347.68905926 C245.85743833 347.75470478 255.82194881 347.82226194 265.78643513 347.89428902 C274.4694857 347.95704857 283.15255191 348.01625237 291.83565587 348.0711512 C296.43507441 348.10035608 301.03446511 348.1313653 305.63384151 348.16662979 C309.96013997 348.19974443 314.28644323 348.22811592 318.61279774 348.2528019 C320.20314384 348.26272119 321.79348008 348.27439435 323.38379955 348.28792572 C325.55038676 348.30610154 327.71692066 348.31804203 329.88355732 348.32838631 C331.09755868 348.33668244 332.31156004 348.34497858 333.56234932 348.35352612 C336.56894051 348.38226047 336.56894051 348.38226047 339.50835896 347.24609566 C339.50835896 236.36609566 339.50835896 125.48609566 339.50835896 11.24609566 C339.83835896 11.24609566 340.16835896 11.24609566 340.50835896 11.24609566 C341.28372025 54.47552912 341.73493639 97.69732235 341.85210896 140.93359566 C341.85408386 141.66098001 341.85605875 142.38836437 341.8580935 143.13779068 C341.89724934 157.71596032 341.93049732 172.29414198 341.95317554 186.87234688 C341.95813891 190.00588177 341.96318446 193.13941651 341.96831989 196.27295113 C341.9702259 197.440172 341.9702259 197.440172 341.97217041 198.6309731 C341.99379641 211.3962472 342.04316629 224.16127412 342.10256404 236.92642224 C342.16365706 250.16770925 342.1983467 263.4088663 342.20764875 276.6502924 C342.21353242 284.03303623 342.2310425 291.41534393 342.27903461 298.79794502 C342.32380654 305.68697599 342.33323586 312.57525853 342.31840611 319.4644165 C342.31873529 321.98640671 342.33105276 324.50842822 342.35625553 327.03029251 C342.38884174 330.47128924 342.37824339 333.90956411 342.3568697 337.35058784 C342.37657747 338.34585834 342.39628524 339.34112883 342.41659021 340.36655903 C342.31603082 346.77450323 340.85794874 350.01377695 336.31857824 354.56080437 C335.72120588 355.11695049 335.12383351 355.67309662 334.50835896 356.24609566 C333.45093065 357.32938366 332.39630232 358.41542249 331.34624958 359.50586128 C330.28817394 360.55718238 329.22756255 361.60595674 328.16460896 362.65234566 C327.30542866 363.50584602 327.30542866 363.50584602 326.42889118 364.37658882 C324.01896614 366.77042252 321.60301417 369.15813809 319.18755817 371.54638863 C310.25876859 380.37885559 310.25876859 380.37885559 301.85552692 389.70752144 C300.1590244 391.64506383 298.31190323 393.30381302 296.32085896 394.93359566 C294.10358573 396.81170663 292.3329755 398.46532497 290.50835896 400.74609566 C288.7542106 402.9387811 287.14383886 404.46069443 285.00835896 406.24609566 C280.50202394 410.06631576 276.62024706 414.37858793 272.72124958 418.80273628 C270.13484017 421.68981152 267.95794433 423.5594621 264.50835896 425.24609566 C264.05985348 426.15341139 264.05985348 426.15341139 263.60228729 427.07905674 C262.41095921 429.4390416 261.10000677 430.9112412 259.23988056 432.78199959 C258.56570087 433.46470924 257.89152119 434.1474189 257.19691181 434.85081673 C256.45768986 435.58913231 255.7184679 436.32744789 254.95684528 437.08813667 C254.17775806 437.87394112 253.39867085 438.65974556 252.59597492 439.46936226 C250.01609525 442.06825625 247.42871898 444.65952427 244.84039021 447.25000191 C243.04382864 449.05298922 241.24741855 450.8561275 239.45115376 452.65941048 C235.68269272 456.43985306 231.91015703 460.21617276 228.13506794 463.98999214 C223.77931124 468.34454819 219.43482322 472.71012482 215.09549791 477.0810495 C210.9129161 481.29299418 206.71925268 485.49378188 202.52136517 489.69047546 C200.74037667 491.47382324 198.96262847 493.26041317 197.18820858 495.05029678 C194.70382553 497.55429439 192.20706519 500.04527798 189.70684528 502.53344917 C188.97774448 503.27378899 188.24864368 504.0141288 187.49744892 504.77690315 C183.4166701 508.80794405 180.03931649 511.56187687 174.50835896 513.24609566 C171.69585896 512.37109566 171.69585896 512.37109566 169.50835896 510.24609566 C167.89803367 505.61422928 167.2541407 501.52111656 167.22988605 496.63380623 C167.21314083 494.70094513 167.21314083 494.70094513 167.19605732 492.72903633 C167.19369289 491.31878882 167.19151714 489.90854099 167.1895113 488.49829292 C167.18020408 486.99973706 167.17003423 485.50118634 167.15907001 484.00264168 C167.13184541 479.94947734 167.11664305 475.89634761 167.10364199 471.84311604 C167.08797835 467.60166485 167.06119847 463.36028398 167.03561115 459.11888313 C166.98888051 451.09388459 166.95210878 443.06887273 166.91893828 435.04380792 C166.88067646 425.90471911 166.83127696 416.76570103 166.78095412 407.62667191 C166.67771928 388.83319831 166.58843147 370.0396815 166.50835896 351.24609566 C157.7238212 350.23068858 149.02008236 350.12113487 140.18633747 350.16430855 C138.67398396 350.16787231 137.16162926 350.17095619 135.64927387 350.17360115 C132.41530706 350.18010784 129.18136882 350.18963718 125.94741726 350.20149612 C120.83329226 350.21990219 115.71917386 350.2294164 110.60502338 350.23741341 C96.07057443 350.26148455 81.5361674 350.29756521 67.00176716 350.34204292 C58.95732156 350.36658203 50.91289188 350.38394653 42.86841434 350.39360231 C37.78398787 350.40014214 32.69969359 350.41569169 27.6153127 350.43791974 C24.45866595 350.44963922 21.30205142 350.45301642 18.14538479 350.45401764 C16.68123161 350.45616674 15.21707885 350.46176398 13.75295353 350.47104836 C11.75593469 350.48322373 9.7588471 350.48190181 7.76179218 350.47987556 C6.6441174 350.48301797 5.52644262 350.48616037 4.37489891 350.489398 C1.55049728 350.24967222 -0.09740761 349.71223332 -2.49164104 348.24609566 C-2.49164104 347.58609566 -2.49164104 346.92609566 -2.49164104 346.24609566 C-3.15164104 346.24609566 -3.81164104 346.24609566 -4.49164104 346.24609566 C-7.05768003 342.34655219 -6.94649373 338.13211414 -7.11053753 333.62036324 C-7.1670418 332.25545234 -7.1670418 332.25545234 -7.22468758 330.86296749 C-7.72203478 317.12814585 -7.61836916 303.37686444 -7.59303498 289.63517547 C-7.58668991 285.59938148 -7.58618898 281.56358636 -7.58500957 277.52778816 C-7.58192859 269.92113069 -7.5737598 262.31448797 -7.56366009 254.70783693 C-7.55239725 246.03278911 -7.54696314 237.3577405 -7.54196465 228.68268716 C-7.53157364 210.8704817 -7.51403832 193.05828987 -7.49164104 175.24609566 C-8.28070685 175.24793924 -9.06977266 175.24978283 -9.88274956 175.25168228 C-29.07845648 175.29584228 -48.27415326 175.32894297 -67.46990013 175.34972 C-76.75280042 175.36003456 -86.03566681 175.37409834 -95.31854534 175.39697456 C-103.40907161 175.41690292 -111.49957334 175.42981079 -119.59012347 175.43427265 C-123.87438611 175.43688096 -128.15857851 175.4430154 -132.44281864 175.45755577 C-136.47533204 175.47113091 -140.50774627 175.47531843 -144.54028034 175.47231102 C-146.02012578 175.47286121 -147.49997454 175.47683909 -148.97980022 175.48450661 C-151.00115337 175.4944662 -153.02255973 175.49087092 -155.04393291 175.48660469 C-156.17497291 175.48844828 -157.3060129 175.49029186 -158.47132683 175.49219131 C-161.59017954 175.23806673 -163.72975966 174.70342755 -166.49164104 173.24609566 C-168.98354866 169.50823424 -168.96572455 167.6726674 -168.49164104 163.24609566 C-166.73504925 160.69482613 -166.73504925 160.69482613 -164.29242229 158.36328316 C-163.41263714 157.50605659 -162.53285198 156.64883003 -161.62640667 155.76562691 C-160.69505901 154.89293159 -159.76371136 154.02023628 -158.80414104 153.12109566 C-157.43612347 151.80045113 -157.43612347 151.80045113 -156.04046917 150.45312691 C-154.3332489 148.80674576 -152.61892073 147.16767949 -150.8952055 145.53857613 C-148.38688033 143.1461766 -145.93587376 140.70380485 -143.49164104 138.24609566 C-142.45217983 137.21653697 -141.41194682 136.18775621 -140.37054729 135.16015816 C-133.34849468 128.27010378 -133.34849468 128.27010378 -126.80414104 120.93359566 C-125.65945354 119.60328316 -125.65945354 119.60328316 -124.49164104 118.24609566 C-123.83164104 118.24609566 -123.17164104 118.24609566 -122.49164104 118.24609566 C-122.49164104 117.58609566 -122.49164104 116.92609566 -122.49164104 116.24609566 C-121.23382854 115.01172066 -121.23382854 115.01172066 -119.36664104 113.49609566 C-115.05669195 109.83846318 -111.05007599 105.92647638 -107.05414104 101.93359566 C-106.11320599 100.99918648 -106.11320599 100.99918648 -105.15326214 100.04590034 C-104.56496624 99.45583199 -103.97667034 98.86576363 -103.37054729 98.25781441 C-102.57499432 97.46056953 -102.57499432 97.46056953 -101.76336956 96.6472187 C-100.38220519 95.25221161 -100.38220519 95.25221161 -99.49164104 93.24609566 C-98.83164104 93.24609566 -98.17164104 93.24609566 -97.49164104 93.24609566 C-97.49164104 92.58609566 -97.49164104 91.92609566 -97.49164104 91.24609566 C-95.84161277 89.8922263 -94.17420234 88.55931423 -92.49164104 87.24609566 C-92.16164104 86.58609566 -91.83164104 85.92609566 -91.49164104 85.24609566 C-90.83164104 85.24609566 -90.17164104 85.24609566 -89.49164104 85.24609566 C-89.49164104 84.58609566 -89.49164104 83.92609566 -89.49164104 83.24609566 C-88.83164104 83.24609566 -88.17164104 83.24609566 -87.49164104 83.24609566 C-87.49164104 82.58609566 -87.49164104 81.92609566 -87.49164104 81.24609566 C-86.83164104 81.24609566 -86.17164104 81.24609566 -85.49164104 81.24609566 C-84.50164104 79.26609566 -84.50164104 79.26609566 -83.49164104 77.24609566 C-82.83164104 77.24609566 -82.17164104 77.24609566 -81.49164104 77.24609566 C-81.49164104 76.58609566 -81.49164104 75.92609566 -81.49164104 75.24609566 C-79.81195354 73.62500191 -79.81195354 73.62500191 -77.61664104 71.80859566 C-75.02970383 69.66208682 -73.3797973 68.07833004 -71.49164104 65.24609566 C-70.83164104 65.24609566 -70.17164104 65.24609566 -69.49164104 65.24609566 C-69.49164104 64.58609566 -69.49164104 63.92609566 -69.49164104 63.24609566 C-68.83164104 63.24609566 -68.17164104 63.24609566 -67.49164104 63.24609566 C-67.49164104 62.58609566 -67.49164104 61.92609566 -67.49164104 61.24609566 C-65.84812647 59.88432644 -64.17641448 58.556475 -62.49164104 57.24609566 C-59.86838267 54.7508011 -57.52801658 52.29286421 -55.30414104 49.43359566 C-54.70601604 48.71172066 -54.10789104 47.98984566 -53.49164104 47.24609566 C-52.83164104 47.24609566 -52.17164104 47.24609566 -51.49164104 47.24609566 C-51.49164104 46.58609566 -51.49164104 45.92609566 -51.49164104 45.24609566 C-50.83164104 45.24609566 -50.17164104 45.24609566 -49.49164104 45.24609566 C-49.49164104 44.58609566 -49.49164104 43.92609566 -49.49164104 43.24609566 C-48.83164104 43.24609566 -48.17164104 43.24609566 -47.49164104 43.24609566 C-47.49164104 42.58609566 -47.49164104 41.92609566 -47.49164104 41.24609566 C-46.83164104 41.24609566 -46.17164104 41.24609566 -45.49164104 41.24609566 C-45.49164104 40.58609566 -45.49164104 39.92609566 -45.49164104 39.24609566 C-44.83164104 39.24609566 -44.17164104 39.24609566 -43.49164104 39.24609566 C-43.49164104 38.58609566 -43.49164104 37.92609566 -43.49164104 37.24609566 C-41.61664104 35.12109566 -41.61664104 35.12109566 -39.49164104 33.24609566 C-38.83164104 33.24609566 -38.17164104 33.24609566 -37.49164104 33.24609566 C-37.28539104 32.70984566 -37.07914104 32.17359566 -36.86664104 31.62109566 C-34.95913678 28.32631557 -32.4434472 25.65245937 -29.49164104 23.24609566 C-28.83164104 23.24609566 -28.17164104 23.24609566 -27.49164104 23.24609566 C-27.49164104 22.58609566 -27.49164104 21.92609566 -27.49164104 21.24609566 C-26.83164104 21.24609566 -26.17164104 21.24609566 -25.49164104 21.24609566 C-25.49164104 20.58609566 -25.49164104 19.92609566 -25.49164104 19.24609566 C-24.83164104 19.24609566 -24.17164104 19.24609566 -23.49164104 19.24609566 C-23.49164104 18.58609566 -23.49164104 17.92609566 -23.49164104 17.24609566 C-22.83164104 17.24609566 -22.17164104 17.24609566 -21.49164104 17.24609566 C-21.49164104 16.58609566 -21.49164104 15.92609566 -21.49164104 15.24609566 C-20.83164104 15.24609566 -20.17164104 15.24609566 -19.49164104 15.24609566 C-19.49164104 14.58609566 -19.49164104 13.92609566 -19.49164104 13.24609566 C-18.83164104 13.24609566 -18.17164104 13.24609566 -17.49164104 13.24609566 C-17.49164104 12.58609566 -17.49164104 11.92609566 -17.49164104 11.24609566 C-16.83164104 11.24609566 -16.17164104 11.24609566 -15.49164104 11.24609566 C-15.49164104 10.58609566 -15.49164104 9.92609566 -15.49164104 9.24609566 C-14.83164104 9.24609566 -14.17164104 9.24609566 -13.49164104 9.24609566 C-13.49164104 8.58609566 -13.49164104 7.92609566 -13.49164104 7.24609566 C-12.83164104 7.24609566 -12.17164104 7.24609566 -11.49164104 7.24609566 C-11.16164104 6.25609566 -10.83164104 5.26609566 -10.49164104 4.24609566 C-9.83164104 4.24609566 -9.17164104 4.24609566 -8.49164104 4.24609566 C-8.49164104 3.58609566 -8.49164104 2.92609566 -8.49164104 2.24609566 C-5.10295124 -0.01303088 -3.96937794 -0.0030289 0 0 Z " fill="#C2B7F0" transform="translate(171.4916410446167,41.75390434265137)"/>
<path d="M0 0 C1.34034308 -0.01609902 1.34034308 -0.01609902 2.70776379 -0.03252327 C3.48269049 -0.04601829 4.25761719 -0.0595133 5.05602652 -0.07341725 C8.10005858 0.10384747 9.7979565 1.05026113 12.06629288 3.04364765 C15.21066456 7.23185349 15.42110128 10.3580121 15.35926163 15.5319289 C15.35501679 16.2351276 15.35077195 16.9383263 15.34639847 17.66283405 C15.32969348 19.89433895 15.29205902 22.12491877 15.25379288 24.35614765 C15.23873536 25.87501475 15.22504882 27.3938961 15.21277726 28.91278827 C15.17981761 32.62337199 15.12809304 36.33341943 15.06629288 40.04364765 C14.73629288 40.04364765 14.40629288 40.04364765 14.06629288 40.04364765 C13.73629288 141.35364765 13.40629288 242.66364765 13.06629288 347.04364765 C12.40629288 347.04364765 11.74629288 347.04364765 11.06629288 347.04364765 C10.73629288 347.70364765 10.40629288 348.36364765 10.06629288 349.04364765 C7.75629288 348.71364765 5.44629288 348.38364765 3.06629288 348.04364765 C3.72629288 347.38364765 4.38629288 346.72364765 5.06629288 346.04364765 C6.38629288 346.04364765 7.70629288 346.04364765 9.06629288 346.04364765 C9.06629288 345.05364765 9.06629288 344.06364765 9.06629288 343.04364765 C7.74629288 342.38364765 6.42629288 341.72364765 5.06629288 341.04364765 C5.02055108 298.67248662 4.98529181 256.30132844 4.96416222 213.93014763 C4.9616607 208.9319295 4.95907207 203.93371141 4.9564296 198.93549335 C4.95564267 197.44286167 4.95564267 197.44286167 4.95483984 195.92007581 C4.94612869 179.79134472 4.93035481 163.66262783 4.91198729 147.53390517 C4.89330798 130.99390007 4.88218034 114.45390242 4.87811589 97.9138872 C4.87536674 87.70144572 4.86667258 77.48904437 4.85045995 67.27661524 C4.83991735 60.28094276 4.83668605 53.28529115 4.83929013 46.2896113 C4.84057568 42.24880538 4.83855543 38.20806979 4.82788193 34.16727626 C4.81819141 30.47178718 4.81763044 26.77641612 4.82449509 23.08092175 C4.82574812 21.10278697 4.81708469 19.1246537 4.80813026 17.14653879 C4.81211236 15.98059492 4.81609446 14.81465105 4.82019722 13.61337554 C4.81943778 12.60293975 4.81867834 11.59250395 4.81789589 10.55144888 C5.06629288 8.04364765 5.06629288 8.04364765 7.06629288 5.04364765 C-33.13863433 5.02072627 -73.34356069 5.00312149 -113.54849314 4.99258232 C-118.30206057 4.99133171 -123.05562799 4.99003738 -127.8091954 4.98871601 C-128.75548931 4.9884537 -129.70178322 4.98819139 -130.6767527 4.98792113 C-145.97086265 4.98357753 -161.26496882 4.97569721 -176.55907653 4.96649485 C-192.26859561 4.95712184 -207.97811271 4.95158432 -223.68763447 4.94955915 C-233.37028128 4.94819149 -243.05291739 4.94388205 -252.73556091 4.93573118 C-259.38793376 4.93041867 -266.04030112 4.92885354 -272.69267593 4.93014627 C-276.52266713 4.93078265 -280.35263972 4.92985235 -284.18262756 4.92444217 C-305.00498311 4.88380842 -305.00498311 4.88380842 -325.80133903 5.82888877 C-327.84192444 5.96879373 -329.88833131 6.04364765 -331.93370712 6.04364765 C-331.93370712 4.72364765 -331.93370712 3.40364765 -331.93370712 2.04364765 C-323.80717285 1.1495524 -315.77719026 0.89209833 -307.60568893 0.88542926 C-306.30477626 0.88049129 -305.0038636 0.87555331 -303.66352934 0.8704657 C-300.08199095 0.8569996 -296.50046196 0.84949993 -292.91890502 0.84303904 C-289.04496753 0.83498307 -285.17104926 0.82130273 -281.2971257 0.8083266 C-274.59276519 0.78663179 -267.88840267 0.768461 -261.18402565 0.75272167 C-251.47988253 0.72993692 -241.77576061 0.70180373 -232.07163555 0.67240239 C-216.31074374 0.62479715 -200.54984314 0.58152084 -184.78893173 0.5409621 C-169.50865114 0.50163126 -154.22837862 0.46019586 -138.94811141 0.4159621 C-137.53613051 0.41187569 -137.53613051 0.41187569 -136.09562474 0.40770673 C-131.37157824 0.39402303 -126.64753186 0.3803017 -121.92348552 0.36656642 C-93.07496895 0.28275443 -64.22644533 0.20170787 -35.37790728 0.12563443 C-33.11297212 0.11964719 -30.8480371 0.11361237 -28.58310211 0.10756481 C-24.43364907 0.09649832 -20.28419544 0.08566991 -16.13474166 0.07488239 C-14.93405184 0.07167356 -13.73336201 0.06846473 -12.49628764 0.06515867 C-10.3074129 0.05956036 -8.11853303 0.0556044 -5.92965198 0.05366969 C-3.95303142 0.04705749 -1.97641289 0.02940504 0 0 Z " fill="#8D7CE5" transform="translate(497.93370711803436,41.95635235309601)"/>
<path d="M0 0 C10.93390623 -0.57323392 10.93390623 -0.57323392 15 3 C18.14437168 7.18820584 18.35480839 10.31436445 18.29296875 15.48828125 C18.28872391 16.19147995 18.28447906 16.89467865 18.28010559 17.6191864 C18.2634006 19.85069131 18.22576614 22.08127113 18.1875 24.3125 C18.17244248 25.8313671 18.15875594 27.35024846 18.14648438 28.86914062 C18.11352473 32.57972434 18.06180016 36.28977178 18 40 C17.67 40 17.34 40 17 40 C16.67 141.31 16.34 242.62 16 347 C15.34 347 14.68 347 14 347 C13.67 347.66 13.34 348.32 13 349 C13.06510417 347.046875 13.13020833 345.09375 13.1953125 343.140625 C13.13819633 340.96664125 13.13819633 340.96664125 12.00299937 339.15073943 C10.86716474 336.7151603 10.75228113 335.12261521 10.75669765 332.4475441 C10.75333226 331.53359823 10.74996686 330.61965237 10.74649948 329.67801118 C10.75300728 328.67730521 10.75951508 327.67659924 10.76622009 326.64556885 C10.76521681 325.5791037 10.76421353 324.51263855 10.76317984 323.41385627 C10.76222434 319.8256354 10.77559235 316.23760864 10.78881836 312.64941406 C10.79101938 310.07962096 10.79232502 307.50982696 10.7928009 304.94003296 C10.7951668 299.38861085 10.80476592 293.8372388 10.81910515 288.28583527 C10.83988401 280.19847925 10.84848748 272.11114446 10.8540265 264.0237653 C10.86329915 250.82181901 10.88075072 237.61989731 10.90405273 224.41796875 C10.90544605 223.62745415 10.90683936 222.83693955 10.9082749 222.02246997 C10.90967043 221.2312941 10.91106596 220.44011823 10.91250378 219.62496734 C10.91532406 218.02589782 10.91814262 216.42682831 10.92095947 214.82775879 C10.9223548 214.03609916 10.92375012 213.24443954 10.92518773 212.42879023 C10.94036528 203.73963867 10.95334996 195.05048429 10.96557617 186.36132812 C10.96666702 185.58755279 10.96775787 184.81377746 10.96888178 184.01655439 C10.98716322 170.92609703 11.00102859 157.83563703 11.01274782 144.74517226 C11.02018946 136.72570465 11.03182272 128.70626461 11.04917539 120.68681227 C11.06381879 113.8181151 11.07293791 106.94941887 11.07955249 100.08070964 C11.0817697 98.09469924 11.08502483 96.10869009 11.08828819 94.12268114 C11.10657371 80.31311825 11.03297227 66.51330386 10.68539187 52.70820919 C10.63513288 50.70757109 10.58727358 48.70687318 10.53944236 46.70617557 C10.388332 40.46404195 10.21563236 34.22395208 10.00278378 27.98361588 C9.94353925 25.78139345 9.8849598 23.579153 9.8271637 21.37689209 C9.78472617 20.37728628 9.74228864 19.37768046 9.69856513 18.34778357 C9.5493487 11.59358153 9.5493487 11.59358153 12.01080227 8.35144424 C12.66723752 7.90546764 13.32367277 7.45949104 14 7 C12.03617993 5.49440461 10.21736634 4.10868317 8 3 C8 2.34 8 1.68 8 1 C5.36 1 2.72 1 0 1 C0 0.67 0 0.34 0 0 Z " fill="#9181DB" transform="translate(495,42)"/>
<path d="M0 0 C1.14852689 -0.0039821 2.29705379 -0.00796419 3.48038453 -0.01206696 C5.3816233 -0.00332844 5.3816233 -0.00332844 7.32127094 0.00558662 C8.67679545 0.00471491 10.03231963 0.00296455 11.387842 0.00040829 C15.12082306 -0.00407592 18.85368994 0.00395311 22.58665645 0.01396441 C26.60913621 0.02258121 30.63160926 0.01968001 34.65409565 0.01815987 C41.62601663 0.01710989 48.59790024 0.02339823 55.56981182 0.03463554 C65.65008745 0.05087236 75.73034497 0.05609668 85.81063227 0.05861153 C102.16423045 0.06299149 118.51780871 0.07630876 134.87139606 0.09521675 C150.7597414 0.11356776 166.64808133 0.12772807 182.53643513 0.13623238 C183.51538151 0.13675782 184.49432789 0.13728327 185.50293931 0.13782464 C190.41390274 0.14043467 195.32486621 0.14296209 200.23582971 0.14544845 C240.99335332 0.16619033 281.750855 0.20142405 322.50835896 0.24609566 C322.50835896 0.57609566 322.50835896 0.90609566 322.50835896 1.24609566 C321.84139378 1.24783191 321.1744286 1.24956816 320.48725235 1.25135702 C280.94722953 1.35441131 241.40722345 1.46252934 201.86723257 1.5772126 C197.11837637 1.59098198 192.36952004 1.60470911 187.62066364 1.61841011 C186.20256098 1.62250257 186.20256098 1.62250257 184.75580977 1.6266777 C169.4530707 1.67073863 154.15032436 1.71137715 138.84757258 1.75074827 C123.14260084 1.79123051 107.43764256 1.83539666 91.73269069 1.88297421 C82.04388896 1.91221021 72.35508817 1.93858143 62.66626887 1.96127463 C56.0200173 1.97711693 49.37378218 1.99654135 42.72754891 2.01876407 C38.89450663 2.03147525 35.06147684 2.04262481 31.2284193 2.04951477 C27.0674016 2.05703565 22.90644463 2.07210873 18.74545002 2.08787727 C16.93899673 2.08934443 16.93899673 2.08934443 15.09604943 2.09084123 C3.57483206 1.44864032 3.57483206 1.44864032 -6.80414104 4.99609566 C-7.36101604 5.73859566 -7.91789104 6.48109566 -8.49164104 7.24609566 C-11.81937452 10.67692587 -15.29176633 13.88832711 -18.86664104 17.05859566 C-22.89780498 20.69422872 -26.52629877 24.43187333 -30.01507854 28.58203316 C-31.95168542 30.76455837 -34.21576736 32.42539671 -36.49164104 34.24609566 C-39.44960578 37.41384512 -42.24288506 40.7241743 -44.99164104 44.07422066 C-48.20314511 47.94897013 -51.64760894 51.173019 -55.48382854 54.42578316 C-58.16791012 56.8592112 -60.43008209 59.57223452 -62.76898479 62.33203316 C-64.95847398 64.76479892 -67.36602929 66.8094728 -69.87835979 68.89843941 C-73.81399855 72.18607953 -76.99872053 75.85960149 -80.13704205 79.89100838 C-84.05545538 84.80651237 -88.25448148 89.26864703 -92.72772503 93.67749214 C-93.50757259 94.45441917 -94.28742016 95.23134621 -95.09089947 96.03181648 C-96.76588796 97.69925729 -98.44318052 99.36438633 -100.12259007 101.02737427 C-102.77892117 103.65797687 -105.42877678 106.29495365 -108.07710552 108.93361092 C-113.68883063 114.52260287 -119.30839353 120.10368124 -124.92914104 125.68359566 C-131.46902678 132.17611935 -138.00549242 138.67202825 -144.53371143 145.1762886 C-147.14718843 147.77678237 -149.76660228 150.37119479 -152.38627911 152.96544075 C-153.97825206 154.55015311 -155.56994739 156.13514444 -157.16131878 157.72046089 C-158.25916195 158.8028051 -158.25916195 158.8028051 -159.37918377 159.90701485 C-160.37360233 160.90122192 -160.37360233 160.90122192 -161.38811016 161.91551399 C-161.96674533 162.48970794 -162.5453805 163.06390188 -163.14155006 163.65549564 C-164.7227412 165.31803504 -164.7227412 165.31803504 -165.49164104 168.24609566 C-166.15164104 168.24609566 -166.81164104 168.24609566 -167.49164104 168.24609566 C-167.98664104 169.23609566 -167.98664104 169.23609566 -168.49164104 170.24609566 C-169.00538665 163.99225849 -169.00538665 163.99225849 -166.73504925 160.69482613 C-165.92898235 159.92541695 -165.12291546 159.15600777 -164.29242229 158.36328316 C-163.41263714 157.50605659 -162.53285198 156.64883003 -161.62640667 155.76562691 C-160.69505901 154.89293159 -159.76371136 154.02023628 -158.80414104 153.12109566 C-157.43612347 151.80045113 -157.43612347 151.80045113 -156.04046917 150.45312691 C-154.3332489 148.80674576 -152.61892073 147.16767949 -150.8952055 145.53857613 C-148.38688033 143.1461766 -145.93587376 140.70380485 -143.49164104 138.24609566 C-142.45217983 137.21653697 -141.41194682 136.18775621 -140.37054729 135.16015816 C-133.34849468 128.27010378 -133.34849468 128.27010378 -126.80414104 120.93359566 C-125.65945354 119.60328316 -125.65945354 119.60328316 -124.49164104 118.24609566 C-123.83164104 118.24609566 -123.17164104 118.24609566 -122.49164104 118.24609566 C-122.49164104 117.58609566 -122.49164104 116.92609566 -122.49164104 116.24609566 C-121.23382854 115.01172066 -121.23382854 115.01172066 -119.36664104 113.49609566 C-115.05669195 109.83846318 -111.05007599 105.92647638 -107.05414104 101.93359566 C-106.11320599 100.99918648 -106.11320599 100.99918648 -105.15326214 100.04590034 C-104.56496624 99.45583199 -103.97667034 98.86576363 -103.37054729 98.25781441 C-102.57499432 97.46056953 -102.57499432 97.46056953 -101.76336956 96.6472187 C-100.38220519 95.25221161 -100.38220519 95.25221161 -99.49164104 93.24609566 C-98.83164104 93.24609566 -98.17164104 93.24609566 -97.49164104 93.24609566 C-97.49164104 92.58609566 -97.49164104 91.92609566 -97.49164104 91.24609566 C-95.84161277 89.8922263 -94.17420234 88.55931423 -92.49164104 87.24609566 C-92.16164104 86.58609566 -91.83164104 85.92609566 -91.49164104 85.24609566 C-90.83164104 85.24609566 -90.17164104 85.24609566 -89.49164104 85.24609566 C-89.49164104 84.58609566 -89.49164104 83.92609566 -89.49164104 83.24609566 C-88.83164104 83.24609566 -88.17164104 83.24609566 -87.49164104 83.24609566 C-87.49164104 82.58609566 -87.49164104 81.92609566 -87.49164104 81.24609566 C-86.83164104 81.24609566 -86.17164104 81.24609566 -85.49164104 81.24609566 C-84.50164104 79.26609566 -84.50164104 79.26609566 -83.49164104 77.24609566 C-82.83164104 77.24609566 -82.17164104 77.24609566 -81.49164104 77.24609566 C-81.49164104 76.58609566 -81.49164104 75.92609566 -81.49164104 75.24609566 C-79.81195354 73.62500191 -79.81195354 73.62500191 -77.61664104 71.80859566 C-75.02970383 69.66208682 -73.3797973 68.07833004 -71.49164104 65.24609566 C-70.83164104 65.24609566 -70.17164104 65.24609566 -69.49164104 65.24609566 C-69.49164104 64.58609566 -69.49164104 63.92609566 -69.49164104 63.24609566 C-68.83164104 63.24609566 -68.17164104 63.24609566 -67.49164104 63.24609566 C-67.49164104 62.58609566 -67.49164104 61.92609566 -67.49164104 61.24609566 C-65.84812647 59.88432644 -64.17641448 58.556475 -62.49164104 57.24609566 C-59.86838267 54.7508011 -57.52801658 52.29286421 -55.30414104 49.43359566 C-54.70601604 48.71172066 -54.10789104 47.98984566 -53.49164104 47.24609566 C-52.83164104 47.24609566 -52.17164104 47.24609566 -51.49164104 47.24609566 C-51.49164104 46.58609566 -51.49164104 45.92609566 -51.49164104 45.24609566 C-50.83164104 45.24609566 -50.17164104 45.24609566 -49.49164104 45.24609566 C-49.49164104 44.58609566 -49.49164104 43.92609566 -49.49164104 43.24609566 C-48.83164104 43.24609566 -48.17164104 43.24609566 -47.49164104 43.24609566 C-47.49164104 42.58609566 -47.49164104 41.92609566 -47.49164104 41.24609566 C-46.83164104 41.24609566 -46.17164104 41.24609566 -45.49164104 41.24609566 C-45.49164104 40.58609566 -45.49164104 39.92609566 -45.49164104 39.24609566 C-44.83164104 39.24609566 -44.17164104 39.24609566 -43.49164104 39.24609566 C-43.49164104 38.58609566 -43.49164104 37.92609566 -43.49164104 37.24609566 C-41.61664104 35.12109566 -41.61664104 35.12109566 -39.49164104 33.24609566 C-38.83164104 33.24609566 -38.17164104 33.24609566 -37.49164104 33.24609566 C-37.28539104 32.70984566 -37.07914104 32.17359566 -36.86664104 31.62109566 C-34.95913678 28.32631557 -32.4434472 25.65245937 -29.49164104 23.24609566 C-28.83164104 23.24609566 -28.17164104 23.24609566 -27.49164104 23.24609566 C-27.49164104 22.58609566 -27.49164104 21.92609566 -27.49164104 21.24609566 C-26.83164104 21.24609566 -26.17164104 21.24609566 -25.49164104 21.24609566 C-25.49164104 20.58609566 -25.49164104 19.92609566 -25.49164104 19.24609566 C-24.83164104 19.24609566 -24.17164104 19.24609566 -23.49164104 19.24609566 C-23.49164104 18.58609566 -23.49164104 17.92609566 -23.49164104 17.24609566 C-22.83164104 17.24609566 -22.17164104 17.24609566 -21.49164104 17.24609566 C-21.49164104 16.58609566 -21.49164104 15.92609566 -21.49164104 15.24609566 C-20.83164104 15.24609566 -20.17164104 15.24609566 -19.49164104 15.24609566 C-19.49164104 14.58609566 -19.49164104 13.92609566 -19.49164104 13.24609566 C-18.83164104 13.24609566 -18.17164104 13.24609566 -17.49164104 13.24609566 C-17.49164104 12.58609566 -17.49164104 11.92609566 -17.49164104 11.24609566 C-16.83164104 11.24609566 -16.17164104 11.24609566 -15.49164104 11.24609566 C-15.49164104 10.58609566 -15.49164104 9.92609566 -15.49164104 9.24609566 C-14.83164104 9.24609566 -14.17164104 9.24609566 -13.49164104 9.24609566 C-13.49164104 8.58609566 -13.49164104 7.92609566 -13.49164104 7.24609566 C-12.83164104 7.24609566 -12.17164104 7.24609566 -11.49164104 7.24609566 C-11.16164104 6.25609566 -10.83164104 5.26609566 -10.49164104 4.24609566 C-9.83164104 4.24609566 -9.17164104 4.24609566 -8.49164104 4.24609566 C-8.49164104 3.58609566 -8.49164104 2.92609566 -8.49164104 2.24609566 C-5.10295124 -0.01303088 -3.96937794 -0.0030289 0 0 Z " fill="#DED9DE" transform="translate(171.4916410446167,41.75390434265137)"/>
<path d="M0 0 C0.66 0.33 1.32 0.66 2 1 C3.3188065 6.24522925 3.16516706 11.60698633 3.18945312 16.98095703 C3.19774643 17.97027222 3.20603973 18.9595874 3.21458435 19.97888184 C3.23193677 22.11993975 3.24711654 24.26101615 3.26036072 26.40210342 C3.28144682 29.78942987 3.30846311 33.17666328 3.33703613 36.56393433 C3.40675088 44.97315825 3.46629154 53.38244862 3.52606201 61.79174805 C3.57699349 68.90505852 3.63180974 76.0183181 3.69187927 83.13155746 C3.71845508 86.47075642 3.73926548 89.80996017 3.7598877 93.14920044 C3.77648913 95.19207997 3.79336083 97.23495733 3.81054688 99.27783203 C3.81473129 100.20779999 3.81891571 101.13776794 3.82322693 102.09591675 C3.83157059 102.95098816 3.83991425 103.80605957 3.84851074 104.68704224 C3.85366447 105.42774523 3.85881821 106.16844822 3.86412811 106.93159676 C3.93521865 109.03531654 3.93521865 109.03531654 4.57196808 111.14455986 C5 113 5 113 4 115 C3.34 115 2.68 115 2 115 C0.4062868 112.1611813 -0.27194065 110.01711771 -0.40939331 106.77093506 C-0.4664957 105.53564245 -0.4664957 105.53564245 -0.52475166 104.27539444 C-0.55509436 103.39012951 -0.58543705 102.50486458 -0.61669922 101.59277344 C-0.67309728 100.19697367 -0.67309728 100.19697367 -0.73063469 98.77297592 C-1.10603444 88.68826368 -1.14530925 78.60601841 -1.1328125 68.515625 C-1.1334885 66.55263253 -1.13446098 64.58964014 -1.13571167 62.62664795 C-1.13716777 58.56635724 -1.13509781 54.50608886 -1.13037109 50.44580078 C-1.12459812 45.23270069 -1.1280129 40.01965124 -1.13394356 34.80655289 C-1.13754136 30.77815359 -1.13641553 26.74976653 -1.13381577 22.72136688 C-1.13314824 20.79634342 -1.13396884 18.87131886 -1.13629532 16.94629669 C-1.13881711 14.28089897 -1.13499156 11.61558662 -1.12939453 8.95019531 C-1.13141876 8.1545668 -1.13344299 7.35893829 -1.13552856 6.53919983 C-1.11427892 1.11427892 -1.11427892 1.11427892 0 0 Z " fill="#CAC0E8" transform="translate(165,273)"/>
<path d="M0 0 C1.49080078 0.16628906 1.49080078 0.16628906 3.01171875 0.3359375 C4.15060547 0.47902344 4.15060547 0.47902344 5.3125 0.625 C5.3125 0.955 5.3125 1.285 5.3125 1.625 C4.63703125 1.65078125 3.9615625 1.6765625 3.265625 1.703125 C-2.23967058 1.93491685 -2.23967058 1.93491685 -7 4.375 C-7.556875 5.1175 -8.11375 5.86 -8.6875 6.625 C-12.01523348 10.05583021 -15.48762529 13.26723145 -19.0625 16.4375 C-23.09366393 20.07313306 -26.72215772 23.81077767 -30.2109375 27.9609375 C-32.14754437 30.14346271 -34.41162631 31.80430105 -36.6875 33.625 C-39.64546473 36.79274947 -42.43874401 40.10307864 -45.1875 43.453125 C-48.39900407 47.32787447 -51.84346789 50.55192335 -55.6796875 53.8046875 C-58.36376908 56.23811554 -60.62594104 58.95113886 -62.96484375 61.7109375 C-65.14912461 64.13791624 -67.54754039 66.17931196 -70.05859375 68.2578125 C-73.27840732 70.96029391 -76.10361206 73.87689358 -78.6875 77.1875 C-80.8033004 79.76613174 -83.05712062 81.58645598 -85.6875 83.625 C-87.03897138 84.93994512 -88.37862542 86.26764858 -89.6875 87.625 C-90.6775 87.295 -91.6675 86.965 -92.6875 86.625 C-92.1925 85.635 -92.1925 85.635 -91.6875 84.625 C-91.0275 84.625 -90.3675 84.625 -89.6875 84.625 C-89.6875 83.965 -89.6875 83.305 -89.6875 82.625 C-89.0275 82.625 -88.3675 82.625 -87.6875 82.625 C-87.6875 81.965 -87.6875 81.305 -87.6875 80.625 C-87.0275 80.625 -86.3675 80.625 -85.6875 80.625 C-85.0275 79.305 -84.3675 77.985 -83.6875 76.625 C-83.0275 76.625 -82.3675 76.625 -81.6875 76.625 C-81.6875 75.965 -81.6875 75.305 -81.6875 74.625 C-80.0078125 73.00390625 -80.0078125 73.00390625 -77.8125 71.1875 C-75.22556278 69.04099116 -73.57565626 67.45723438 -71.6875 64.625 C-71.0275 64.625 -70.3675 64.625 -69.6875 64.625 C-69.6875 63.965 -69.6875 63.305 -69.6875 62.625 C-69.0275 62.625 -68.3675 62.625 -67.6875 62.625 C-67.6875 61.965 -67.6875 61.305 -67.6875 60.625 C-66.04398543 59.26323078 -64.37227344 57.93537934 -62.6875 56.625 C-60.06424162 54.12970545 -57.72387554 51.67176855 -55.5 48.8125 C-54.901875 48.090625 -54.30375 47.36875 -53.6875 46.625 C-53.0275 46.625 -52.3675 46.625 -51.6875 46.625 C-51.6875 45.965 -51.6875 45.305 -51.6875 44.625 C-51.0275 44.625 -50.3675 44.625 -49.6875 44.625 C-49.6875 43.965 -49.6875 43.305 -49.6875 42.625 C-49.0275 42.625 -48.3675 42.625 -47.6875 42.625 C-47.6875 41.965 -47.6875 41.305 -47.6875 40.625 C-47.0275 40.625 -46.3675 40.625 -45.6875 40.625 C-45.6875 39.965 -45.6875 39.305 -45.6875 38.625 C-45.0275 38.625 -44.3675 38.625 -43.6875 38.625 C-43.6875 37.965 -43.6875 37.305 -43.6875 36.625 C-41.8125 34.5 -41.8125 34.5 -39.6875 32.625 C-39.0275 32.625 -38.3675 32.625 -37.6875 32.625 C-37.48125 32.08875 -37.275 31.5525 -37.0625 31 C-35.15499574 27.70521991 -32.63930616 25.03136372 -29.6875 22.625 C-29.0275 22.625 -28.3675 22.625 -27.6875 22.625 C-27.6875 21.965 -27.6875 21.305 -27.6875 20.625 C-27.0275 20.625 -26.3675 20.625 -25.6875 20.625 C-25.6875 19.965 -25.6875 19.305 -25.6875 18.625 C-25.0275 18.625 -24.3675 18.625 -23.6875 18.625 C-23.6875 17.965 -23.6875 17.305 -23.6875 16.625 C-23.0275 16.625 -22.3675 16.625 -21.6875 16.625 C-21.6875 15.965 -21.6875 15.305 -21.6875 14.625 C-21.0275 14.625 -20.3675 14.625 -19.6875 14.625 C-19.6875 13.965 -19.6875 13.305 -19.6875 12.625 C-19.0275 12.625 -18.3675 12.625 -17.6875 12.625 C-17.6875 11.965 -17.6875 11.305 -17.6875 10.625 C-17.0275 10.625 -16.3675 10.625 -15.6875 10.625 C-15.6875 9.965 -15.6875 9.305 -15.6875 8.625 C-15.0275 8.625 -14.3675 8.625 -13.6875 8.625 C-13.6875 7.965 -13.6875 7.305 -13.6875 6.625 C-13.0275 6.625 -12.3675 6.625 -11.6875 6.625 C-11.3575 5.635 -11.0275 4.645 -10.6875 3.625 C-10.0275 3.625 -9.3675 3.625 -8.6875 3.625 C-8.6875 2.965 -8.6875 2.305 -8.6875 1.625 C-5.1388865 -0.74074234 -4.1110475 -0.48365265 0 0 Z " fill="#D6CFE3" transform="translate(171.6875,42.375)"/>
<path d="M0 0 C0.99 0.66 1.98 1.32 3 2 C2.49138428 2.50337891 1.98276855 3.00675781 1.45874023 3.52539062 C-0.88440728 5.84751978 -3.22346602 8.1737277 -5.5625 10.5 C-6.36236328 11.29148437 -7.16222656 12.08296875 -7.98632812 12.8984375 C-12.34271103 17.23703925 -16.50374194 21.65796794 -20.51000977 26.32080078 C-22.26468095 28.29829192 -24.14280593 30.01380197 -26.1875 31.6875 C-28.40477322 33.56561097 -30.17538345 35.21922931 -32 37.5 C-33.75414835 39.69268544 -35.3645201 41.21459877 -37.5 43 C-42.00633502 46.8202201 -45.88811189 51.13249228 -49.78710938 55.55664062 C-52.34028984 58.40662411 -54.47643714 60.48527298 -58 62 C-58.4640625 62.928125 -58.4640625 62.928125 -58.9375 63.875 C-60.36898744 66.73797489 -62.45441327 68.12430451 -65 70 C-65.33 69.01 -65.66 68.02 -66 67 C-64.70703125 65.09765625 -64.70703125 65.09765625 -62.8125 63.0625 C-62.16667969 62.35996094 -61.52085937 61.65742188 -60.85546875 60.93359375 C-58.93074367 58.92782761 -56.96558333 56.96558333 -55 55 C-54.67 54.34 -54.34 53.68 -54 53 C-53.34 53 -52.68 53 -52 53 C-52 52.34 -52 51.68 -52 51 C-50.57299805 49.59423828 -50.57299805 49.59423828 -48.57421875 47.9453125 C-43.73348673 43.82839837 -39.27932051 39.390495 -34.8125 34.875 C-33.64170898 33.69744141 -33.64170898 33.69744141 -32.44726562 32.49609375 C-30.99466469 31.03486838 -29.54310474 29.57260674 -28.09301758 28.10888672 C-25.73494995 25.73294036 -23.36803999 23.36600637 -21 21 C-19.76479614 19.76479614 -19.76479614 19.76479614 -18.50463867 18.50463867 C-12.33642578 12.33642578 -6.16821289 6.16821289 0 0 Z " fill="#CEC5E8" transform="translate(494,405)"/>
<path d="M0 0 C0.99 0.33 1.98 0.66 3 1 C-0.98534941 5.77636699 -5.14481945 10.2858377 -9.55615234 14.66967773 C-10.18125702 15.29492844 -10.80636169 15.92017914 -11.45040894 16.56437683 C-13.49322079 18.60649851 -15.53953907 20.64506673 -17.5859375 22.68359375 C-19.01247683 24.10826572 -20.43879384 25.53316032 -21.86489868 26.95826721 C-25.60103845 30.69060687 -29.34017262 34.41993237 -33.07995605 38.14862061 C-36.90278697 41.96118329 -40.72275387 45.77661322 -44.54296875 49.59179688 C-52.02585867 57.06399371 -59.51191776 64.53300678 -67 72 C-67.66 71.67 -68.32 71.34 -69 71 C-68.10959463 69.76689565 -67.21234296 68.53873436 -66.3125 67.3125 C-65.56419922 66.28576172 -65.56419922 66.28576172 -64.80078125 65.23828125 C-62.69656832 62.62284956 -60.40156988 60.34722035 -58 58 C-56.8007265 56.80344171 -55.60291509 55.60541694 -54.40625 54.40625 C-47.27083333 47.27083333 -40.13541667 40.13541667 -33 33 C-32.195625 32.175 -31.39125 31.35 -30.5625 30.5 C-28 28 -28 28 -25.0625 25.625 C-22.16107156 23.25921988 -19.84128279 20.58406493 -17.44921875 17.71484375 C-15.41799993 15.31132606 -13.3209604 13.12754703 -11 11 C-10.34 11 -9.68 11 -9 11 C-8.67 10.01 -8.34 9.02 -8 8 C-7.34 8 -6.68 8 -6 8 C-5.34 6.68 -4.68 5.36 -4 4 C-3.34 4 -2.68 4 -2 4 C-1.34 2.68 -0.68 1.36 0 0 Z " fill="#CEC5E8" transform="translate(420,480)"/>
<path d="M0 0 C1.51400391 0.01740234 1.51400391 0.01740234 3.05859375 0.03515625 C4.07050781 0.04417969 5.08242188 0.05320312 6.125 0.0625 C7.29869141 0.07990234 7.29869141 0.07990234 8.49609375 0.09765625 C8.49609375 0.75765625 8.49609375 1.41765625 8.49609375 2.09765625 C9.48609375 2.09765625 10.47609375 2.09765625 11.49609375 2.09765625 C11.49609375 52.25765625 11.49609375 102.41765625 11.49609375 154.09765625 C11.16609375 154.09765625 10.83609375 154.09765625 10.49609375 154.09765625 C10.00109375 79.84765625 10.00109375 79.84765625 9.49609375 4.09765625 C2.80741594 3.48959463 -3.5333494 2.95201049 -10.19140625 3.03515625 C-10.90490234 3.03966797 -11.61839844 3.04417969 -12.35351562 3.04882812 C-14.07035099 3.06035051 -15.78714168 3.07826995 -17.50390625 3.09765625 C-17.50390625 2.76765625 -17.50390625 2.43765625 -17.50390625 2.09765625 C-16.50488281 2.03707031 -15.50585938 1.97648437 -14.4765625 1.9140625 C-13.18621094 1.83027344 -11.89585937 1.74648438 -10.56640625 1.66015625 C-9.27863281 1.57894531 -7.99085938 1.49773437 -6.6640625 1.4140625 C-3.4269664 1.08995275 -3.05255551 0.11905443 0 0 Z " fill="#F3F2D5" transform="translate(328.50390625,388.90234375)"/>
<path d="M0 0 C0.99 0 1.98 0 3 0 C3.0292814 4.47915271 3.04689296 8.95828042 3.0625 13.4375 C3.07087891 14.69755859 3.07925781 15.95761719 3.08789062 17.25585938 C3.10531376 23.9289203 2.91378066 30.38768168 2 37 C2.99 37.33 3.98 37.66 5 38 C5.75 39.9375 5.75 39.9375 6 42 C5.67 42.66 5.34 43.32 5 44 C4.34 44 3.68 44 3 44 C1.38539106 41.13214698 0.72564132 38.96448418 0.5859375 35.68359375 C0.54718506 34.84530029 0.50843262 34.00700684 0.46850586 33.14331055 C0.42222046 31.80393433 0.42222046 31.80393433 0.375 30.4375 C0.33705322 29.51815674 0.29910645 28.59881348 0.26000977 27.65161133 C-0.08760889 18.4345934 -0.09485237 9.22175801 0 0 Z " fill="#CEC4E5" transform="translate(164,344)"/>
<path d="M0 0 C0 4.62 0 9.24 0 14 C-0.66 14 -1.32 14 -2 14 C-2.33 14.66 -2.66 15.32 -3 16 C-3.16788373 14.37512529 -3.33426787 12.75009558 -3.5 11.125 C-3.5928125 10.22007812 -3.685625 9.31515625 -3.78125 8.3828125 C-4 6 -4 6 -4 4 C-7.96 3.67 -11.92 3.34 -16 3 C-16 2.34 -16 1.68 -16 1 C-14.45876053 0.82942804 -12.91697919 0.66375 -11.375 0.5 C-10.51648438 0.4071875 -9.65796875 0.314375 -8.7734375 0.21875 C-5.85710662 -0.01127046 -2.92538805 0 0 0 Z " fill="#CDC4E7" transform="translate(168,213)"/>
<path d="M0 0 C0.66 0 1.32 0 2 0 C2.0294985 3.77081636 2.04696364 7.54160231 2.0625 11.3125 C2.07087891 12.36501953 2.07925781 13.41753906 2.08789062 14.50195312 C2.10909421 21.39311686 1.75671682 28.15030513 1 35 C0.34 34.67 -0.32 34.34 -1 34 C-1.02465288 29.31860746 -1.04283739 24.63725241 -1.05493164 19.95581055 C-1.05997157 18.36205386 -1.0668035 16.76830181 -1.07543945 15.17456055 C-1.08751999 12.88849747 -1.09323155 10.60249533 -1.09765625 8.31640625 C-1.10281754 7.59973282 -1.10797882 6.88305939 -1.11329651 6.14466858 C-1.11349263 4.42936328 -1.06192007 2.71418734 -1 1 C-0.67 0.67 -0.34 0.34 0 0 Z " fill="#D1C7E4" transform="translate(165,231)"/>
<path d="M0 0 C4.3189608 0.59211559 8.46331328 0.64219852 12.8125 0.59375 C13.59173828 0.58923828 14.37097656 0.58472656 15.17382812 0.58007812 C17.07425268 0.56841908 18.97463706 0.55048877 20.875 0.53125 C21.205 1.52125 21.535 2.51125 21.875 3.53125 C11.645 3.53125 1.415 3.53125 -9.125 3.53125 C-8.795 2.54125 -8.465 1.55125 -8.125 0.53125 C-5.1467577 -0.2809979 -3.07886274 -0.46182941 0 0 Z " fill="#D3CBDF" transform="translate(256.125,388.46875)"/>
<path d="M0 0 C10.93390623 -0.57323392 10.93390623 -0.57323392 15 3 C18.14437168 7.18820584 18.35480839 10.31436445 18.29296875 15.48828125 C18.28872391 16.19147995 18.28447906 16.89467865 18.28010559 17.6191864 C18.2634006 19.85069131 18.22576614 22.08127113 18.1875 24.3125 C18.17244248 25.8313671 18.15875594 27.35024846 18.14648438 28.86914062 C18.11352473 32.57972434 18.06180016 36.28977178 18 40 C17.67 40 17.34 40 17 40 C17.00112793 39.08710205 17.00225586 38.1742041 17.00341797 37.23364258 C16.99346561 33.831452 16.95683687 30.43168636 16.90234375 27.0300293 C16.88422611 25.56072088 16.87660762 24.09124264 16.87988281 22.62182617 C16.88275278 20.50306948 16.84732139 18.38780262 16.8046875 16.26953125 C16.79421387 14.99698486 16.78374023 13.72443848 16.77294922 12.41333008 C15.70503918 7.69745824 13.93221535 6.6960997 10 4 C9.34 3.67 8.68 3.34 8 3 C8 2.34 8 1.68 8 1 C5.36 1 2.72 1 0 1 C0 0.67 0 0.34 0 0 Z " fill="#EFEEDA" transform="translate(495,42)"/>
<path d="M0 0 C7.07721931 -0.12109311 13.97195301 0.14626761 21 1 C21 1.66 21 2.32 21 3 C5.99292453 4.90566038 5.99292453 4.90566038 0 2 C0 1.34 0 0.68 0 0 Z " fill="#D6CEE4" transform="translate(5,213)"/>
<path d="M0 0 C0.69480469 0.16371094 1.38960937 0.32742188 2.10546875 0.49609375 C5.2352816 1.04095996 8.13798083 1.09738483 11.3125 1.0625 C12.38113281 1.05347656 13.44976562 1.04445313 14.55078125 1.03515625 C15.76314453 1.01775391 15.76314453 1.01775391 17 1 C17 1.66 17 2.32 17 3 C19.31 3 21.62 3 24 3 C24 3.33 24 3.66 24 4 C20.75007554 4.05819424 17.50028565 4.09366116 14.25 4.125 C13.32960937 4.14175781 12.40921875 4.15851563 11.4609375 4.17578125 C10.57148438 4.18222656 9.68203125 4.18867188 8.765625 4.1953125 C7.54020996 4.21102295 7.54020996 4.21102295 6.29003906 4.22705078 C3.78112482 3.97829916 2.16604375 3.25700129 0 2 C0 1.34 0 0.68 0 0 Z " fill="#DCD7DC" transform="translate(169,388)"/>
<path d="M0 0 C0.33 0 0.66 0 1 0 C1.05425013 2.87525669 1.09379277 5.74947646 1.125 8.625 C1.14175781 9.43324219 1.15851563 10.24148438 1.17578125 11.07421875 C1.21420986 15.80093815 0.82737094 19.55387702 -1 24 C-1.66 23.34 -2.32 22.68 -3 22 C-2.84227455 19.53888784 -2.57875325 17.23733301 -2.1875 14.8125 C-1.99542969 13.51957031 -1.80335938 12.22664063 -1.60546875 10.89453125 C-1.40566406 9.60933594 -1.20585937 8.32414062 -1 7 C-0.66043553 4.6675089 -0.32995156 2.33387758 0 0 Z " fill="#CAC1E9" transform="translate(167,248)"/>
<path d="M0 0 C1.51400391 0.01740234 1.51400391 0.01740234 3.05859375 0.03515625 C4.07050781 0.04417969 5.08242188 0.05320312 6.125 0.0625 C7.29869141 0.07990234 7.29869141 0.07990234 8.49609375 0.09765625 C8.49609375 0.75765625 8.49609375 1.41765625 8.49609375 2.09765625 C-0.17387329 3.2647672 -8.77760017 3.19509639 -17.50390625 3.09765625 C-17.50390625 2.76765625 -17.50390625 2.43765625 -17.50390625 2.09765625 C-16.50488281 2.03707031 -15.50585938 1.97648437 -14.4765625 1.9140625 C-13.18621094 1.83027344 -11.89585937 1.74648438 -10.56640625 1.66015625 C-9.27863281 1.57894531 -7.99085938 1.49773437 -6.6640625 1.4140625 C-3.4269664 1.08995275 -3.05255551 0.11905443 0 0 Z " fill="#DAD5DA" transform="translate(328.50390625,388.90234375)"/>
<path d="M0 0 C1.58294782 -0.05437607 3.16644256 -0.09296271 4.75 -0.125 C5.63171875 -0.14820313 6.5134375 -0.17140625 7.421875 -0.1953125 C10.1135858 0.00860498 11.69904974 0.63448279 14 2 C9.23947038 3.97387813 6.03511899 4.0070238 1 3 C0.67 2.01 0.34 1.02 0 0 Z " fill="#CFC7E5" transform="translate(93,213)"/>
<path d="M0 0 C0.66 0 1.32 0 2 0 C2.10251672 5.12583611 2.03590199 9.94997778 1 15 C0.34 14.67 -0.32 14.34 -1 14 C-1.02685938 11.85423363 -1.04633088 9.70837355 -1.0625 7.5625 C-1.07410156 6.36753906 -1.08570313 5.17257813 -1.09765625 3.94140625 C-1 1 -1 1 0 0 Z " fill="#DAD3E0" transform="translate(165,231)"/>
<path d="M0 0 C8.80896651 -0.46182931 8.80896651 -0.46182931 13.0625 1.1875 C15.41729253 3.39037043 15.74310052 4.83157307 16 8 C13.78133575 6.89066788 11.98172906 5.4862968 10 4 C9.34 3.67 8.68 3.34 8 3 C8 2.34 8 1.68 8 1 C5.36 1 2.72 1 0 1 C0 0.67 0 0.34 0 0 Z " fill="#DFDAD9" transform="translate(495,42)"/>
<path d="M0 0 C0.33 0 0.66 0 1 0 C1 2.64 1 5.28 1 8 C1.99 8.33 2.98 8.66 4 9 C4.75 10.9375 4.75 10.9375 5 13 C4.67 13.66 4.34 14.32 4 15 C3.34 15 2.68 15 2 15 C-0.02558881 11.65060119 -0.21738987 9.13037449 -0.125 5.25 C-0.09792969 3.77273438 -0.09792969 3.77273438 -0.0703125 2.265625 C-0.04710937 1.51796875 -0.02390625 0.7703125 0 0 Z " fill="#DCD6E0" transform="translate(165,373)"/>
<path d="M0 0 C0 3 0 3 -1.75 5.04296875 C-2.4925 5.75066406 -3.235 6.45835937 -4 7.1875 C-4.7425 7.90292969 -5.485 8.61835938 -6.25 9.35546875 C-7.11625 10.16951172 -7.11625 10.16951172 -8 11 C-8.66 10.67 -9.32 10.34 -10 10 C-3.84965831 2.51708428 -3.84965831 2.51708428 0 0 Z " fill="#E0DADC" transform="translate(477,425)"/>
<path d="M0 0 C0.66 0.33 1.32 0.66 2 1 C0.87469572 4.37591285 -0.16053617 5.28446799 -2.8125 7.5625 C-3.49957031 8.16191406 -4.18664062 8.76132813 -4.89453125 9.37890625 C-6.86555845 10.89648749 -8.73964261 11.97902958 -11 13 C-10.62488281 12.56429687 -10.24976563 12.12859375 -9.86328125 11.6796875 C-6.54140223 7.81392401 -3.25357073 3.92342352 0 0 Z " fill="#D7CFE6" transform="translate(24,183)"/>
<path d="M0 0 C0.33 0.99 0.66 1.98 1 3 C-0.11878383 4.17262904 -1.24523051 5.33795138 -2.375 6.5 C-3.00148438 7.1496875 -3.62796875 7.799375 -4.2734375 8.46875 C-6 10 -6 10 -8 10 C-6.34908222 5.70761377 -3.26245434 3.1206085 0 0 Z " fill="#D5CCE0" transform="translate(444,457)"/>
<path d="M0 0 C0.66 0 1.32 0 2 0 C1.52797514 4.24822374 -0.96655518 6.19989709 -4 9 C-4.66 8.67 -5.32 8.34 -6 8 C-5.04956626 6.66102417 -4.08940853 5.32894573 -3.125 4 C-2.59132813 3.2575 -2.05765625 2.515 -1.5078125 1.75 C-1.01023437 1.1725 -0.51265625 0.595 0 0 Z " fill="#D5CEE2" transform="translate(357,543)"/>
<path d="M0 0 C0.66 0.33 1.32 0.66 2 1 C2.14285714 8.42857143 2.14285714 8.42857143 1 12 C0.34 11.67 -0.32 11.34 -1 11 C-1.02688151 9.35425434 -1.04634123 7.70838587 -1.0625 6.0625 C-1.07410156 5.14597656 -1.08570313 4.22945313 -1.09765625 3.28515625 C-1 1 -1 1 0 0 Z " fill="#D2C9E5" transform="translate(165,273)"/>
<path d="M0 0 C0.99 0.33 1.98 0.66 3 1 C1.35 2.98 -0.3 4.96 -2 7 C-2.66 6.01 -3.32 5.02 -4 4 C-2.68 2.68 -1.36 1.36 0 0 Z " fill="#CEC5E6" transform="translate(426,474)"/>
<path d="M0 0 C2.97 0 5.94 0 9 0 C9 0.66 9 1.32 9 2 C3.375 3.125 3.375 3.125 0 2 C0 1.34 0 0.68 0 0 Z " fill="#D5CDE6" transform="translate(109,214)"/>
<path d="M0 0 C3.14624993 -0.26218749 4.61837017 -0.24754367 7.3125 1.5 C8.1478125 2.2425 8.1478125 2.2425 9 3 C6.03 3 3.06 3 0 3 C0 2.01 0 1.02 0 0 Z " fill="#CEC5E9" transform="translate(27,213)"/>
<path d="M0 0 C0.33 0 0.66 0 1 0 C1 4.62 1 9.24 1 14 C0.67 14 0.34 14 0 14 C-1.71084699 8.48727081 -2.4606443 5.46809845 0 0 Z " fill="#BDB2E8" transform="translate(167,266)"/>
<path d="M0 0 C1.65 0 3.3 0 5 0 C5.33 0.99 5.66 1.98 6 3 C2.98968256 3.93423645 2.13349732 4.04449911 -1 3 C-0.67 2.01 -0.34 1.02 0 0 Z " fill="#D8D1E0" transform="translate(344,551)"/>
</svg>