<svg xmlns="http://www.w3.org/2000/svg" version="1.1" width="1600" height="1200">
<path d="M0 0 C3.94060501 0.00767451 7.88117514 -0.0021949 11.82177508 -0.00973 C18.71469866 -0.02052249 25.60755163 -0.0202627 32.50047839 -0.01258852 C42.75076006 -0.00120764 53.00098254 -0.0070596 63.25126386 -0.01621344 C81.56175538 -0.03198743 99.87221544 -0.03065075 118.18270993 -0.0219767 C134.20674728 -0.01442327 150.23077312 -0.01246309 166.25481188 -0.01604463 C167.85058887 -0.01638837 167.85058887 -0.01638837 169.47860378 -0.01673904 C173.79736977 -0.01767309 178.11613576 -0.0186283 182.43490174 -0.01961833 C222.92943908 -0.02879065 263.4239564 -0.02048238 303.91849065 -0.00432764 C339.87753227 0.00990865 375.83654202 0.00863474 411.79558337 -0.00571062 C452.21713528 -0.02178242 492.63866951 -0.02814009 533.06022418 -0.01887383 C537.37101773 -0.01791171 541.68181129 -0.01697319 545.99260485 -0.01604463 C547.05399402 -0.0158074 548.1153832 -0.01557017 549.20893568 -0.01532575 C565.22097739 -0.0119166 581.23300632 -0.01589807 597.24504626 -0.02348329 C615.45559396 -0.03206711 633.66610536 -0.02990368 651.87664855 -0.01364106 C662.06229379 -0.00484444 672.24786036 -0.00423948 682.43350354 -0.01557958 C689.24407047 -0.0223244 696.05457454 -0.01808822 702.86513218 -0.00506528 C706.74081457 0.00204506 710.61634107 0.00456581 714.49201834 -0.00628323 C733.14473381 -0.0546761 750.79188784 0.34182104 768.62370837 6.51040266 C769.5011571 6.81115706 770.37860583 7.11191145 771.28264391 7.42177962 C803.02651812 18.7196673 829.14951461 42.66321446 844.05339587 72.79946516 C846.35102952 77.71867522 848.24156163 82.75079717 849.99870837 87.88540266 C850.27295641 88.67833723 850.54720446 89.4712718 850.82976305 90.28823469 C856.55569607 108.06707889 856.5607946 125.79840425 856.50911103 144.2616943 C856.50143652 148.2022993 856.51130593 152.14286944 856.51884103 156.08346937 C856.52963352 162.97639295 856.52937373 169.86924593 856.52169955 176.76217268 C856.51031867 187.01245435 856.51617063 197.26267684 856.52532447 207.51295815 C856.54109846 225.82344967 856.53976178 244.13390974 856.53108773 262.44440423 C856.5235343 278.46844158 856.52157412 294.49246741 856.52515566 310.51650618 C856.5254994 312.11228317 856.5254994 312.11228317 856.52585007 313.74029808 C856.52678412 318.05906407 856.52773933 322.37783006 856.52872936 326.69659604 C856.53790168 367.19113337 856.52959341 407.6856507 856.51343867 448.18018494 C856.49920238 484.13922657 856.50047629 520.09823632 856.51482165 556.05727766 C856.53089345 596.47882957 856.53725112 636.90036381 856.52798486 677.32191847 C856.52702274 681.63271203 856.52608422 685.94350558 856.52515566 690.25429915 C856.52479982 691.84638291 856.52479982 691.84638291 856.52443678 693.47062997 C856.52102763 709.48267169 856.5250091 725.49470061 856.53259432 741.50674055 C856.54117814 759.71728826 856.53901471 777.92779965 856.52275209 796.13834284 C856.51395547 806.32398809 856.51335051 816.50955466 856.52469061 826.69519783 C856.53143543 833.50576476 856.52719925 840.31626884 856.51417631 847.12682648 C856.50706597 851.00250886 856.50454522 854.87803536 856.51539426 858.75371264 C856.5637901 877.40757318 856.16490474 895.05200876 849.99870837 912.88540266 C849.55083972 914.19722517 849.55083972 914.19722517 849.09392321 915.53554915 C842.64380735 933.70969912 832.29970014 948.39931375 819.12370837 962.38540266 C818.5242943 963.04926985 817.92488024 963.71313704 817.30730212 964.39712141 C804.13253033 978.42555012 786.6717968 988.08404893 768.62370837 994.26040266 C767.8307738 994.53465071 767.03783923 994.80889876 766.22087634 995.09145735 C748.44203214 1000.81739037 730.71070678 1000.82248889 712.24741673 1000.77080533 C708.30681173 1000.76313082 704.36624159 1000.77300023 700.42564166 1000.78053532 C693.53271808 1000.79132781 686.6398651 1000.79106803 679.74693835 1000.78339384 C669.49665668 1000.77201297 659.24643419 1000.77786492 648.99615288 1000.78701876 C630.68566136 1000.80279275 612.37520129 1000.80145608 594.0647068 1000.79278203 C578.04066945 1000.78522859 562.01664362 1000.78326841 545.99260485 1000.78684996 C544.39682786 1000.78719369 544.39682786 1000.78719369 542.76881295 1000.78754437 C538.45004696 1000.78847842 534.13128097 1000.78943362 529.81251499 1000.79042366 C489.31797766 1000.79959597 448.82346033 1000.7912877 408.32892609 1000.77513297 C372.36988446 1000.76089668 336.41087471 1000.76217058 300.45183337 1000.77651594 C260.03028146 1000.79258775 219.60874722 1000.79894542 179.18719256 1000.78967915 C174.876399 1000.78871703 170.56560545 1000.78777851 166.25481188 1000.78684996 C165.19342271 1000.78661273 164.13203354 1000.78637549 163.03848106 1000.78613107 C147.02643934 1000.78272192 131.01441042 1000.78670339 115.00237048 1000.79428862 C96.79182277 1000.80287243 78.58131138 1000.80070901 60.37076819 1000.78444639 C50.18512294 1000.77564976 39.99955637 1000.7750448 29.8139132 1000.78638491 C23.00334627 1000.79312973 16.19284219 1000.78889355 9.38228455 1000.7758706 C5.50660217 1000.76876027 1.63107567 1000.76623952 -2.24460161 1000.77708855 C-20.89846215 1000.82548439 -38.54289773 1000.42659903 -56.37629163 994.26040266 C-57.25083997 993.96182356 -58.12538831 993.66324446 -59.02643812 993.35561751 C-77.19094227 986.90892501 -91.90871717 976.57041353 -105.87629163 963.38540266 C-106.56336195 962.75118391 -107.25043226 962.11696516 -107.95832288 961.46352766 C-128.86601534 941.5043104 -142.43039212 910.8211318 -144.06218908 882.11516358 C-144.13168199 878.67796083 -144.14340131 875.2457743 -144.13076723 871.80789183 C-144.1339737 870.49793726 -144.13718018 869.18798268 -144.14048383 867.83833252 C-144.1490435 864.22491247 -144.14530271 860.61159728 -144.1394281 856.9981758 C-144.13523718 853.05834644 -144.14267138 849.11853549 -144.14858061 845.17871068 C-144.15732561 838.28095012 -144.15866078 831.38321926 -144.15507734 824.48545454 C-144.14976258 814.22790478 -144.15587343 803.97038368 -144.16416027 793.71283703 C-144.17939253 774.32552945 -144.18110613 754.93823495 -144.17863724 735.55092265 C-144.17680384 720.57854953 -144.17856519 705.6061807 -144.18286169 690.63380812 C-144.18346409 688.48193085 -144.18406529 686.33005358 -144.18466529 684.17817631 C-144.18557255 680.93540729 -144.18648122 677.69263827 -144.18739764 674.44986925 C-144.19582607 644.30387991 -144.20016363 614.15789219 -144.19599092 584.01190184 C-144.19583454 582.87568636 -144.19567817 581.73947088 -144.19551705 580.56882463 C-144.19471128 574.81017779 -144.19386551 569.05153096 -144.19300375 563.29288412 C-144.19283266 562.14922135 -144.19266158 561.00555858 -144.1924853 559.82723937 C-144.19213865 557.514476 -144.19179012 555.20171263 -144.19143972 552.88894927 C-144.18608272 516.9037079 -144.19401278 480.91849103 -144.21247327 444.93325423 C-144.23319511 404.49268902 -144.24391563 364.052139 -144.23989779 323.6115682 C-144.23950245 319.29846556 -144.2391409 314.98536291 -144.23880041 310.67226027 C-144.23870967 309.61028509 -144.23861894 308.54830992 -144.23852546 307.45415368 C-144.23736011 291.431538 -144.24400304 275.40893767 -144.25461233 259.38632582 C-144.26666788 241.16104455 -144.26821918 222.93579705 -144.25582216 204.71051527 C-144.24919785 194.51600121 -144.25081477 184.32156791 -144.26441067 174.12706032 C-144.27266698 167.31044363 -144.26994228 160.49388732 -144.25843541 153.67727551 C-144.25219071 149.79806408 -144.25054764 145.91901003 -144.26229874 142.03980781 C-144.31501823 123.37815118 -143.92290111 105.72597597 -137.75129163 87.88540266 C-137.45053724 87.00795393 -137.14978284 86.1305052 -136.83991468 85.22646712 C-125.50005025 53.36465012 -101.65215332 27.51105486 -71.49738538 12.49087141 C-66.57041327 10.16747116 -61.52855329 8.27078637 -56.37629163 6.51040266 C-55.58343763 6.23623518 -54.79058362 5.9620677 -53.97370374 5.67959212 C-36.19528008 -0.04741085 -18.46308144 -0.05168298 0 0 Z " fill="#563D7C" transform="translate(443.8762916326523,99.61459733732045)"/>
<path d="M0 0 C75.5803125 -0.061875 75.5803125 -0.061875 152.6875 -0.125 C176.52037231 -0.15231201 176.52037231 -0.15231201 200.8347168 -0.18017578 C220.29064941 -0.18920898 220.29064941 -0.18920898 229.40925598 -0.19088745 C235.75501503 -0.19274487 242.10073845 -0.20004861 248.44648743 -0.21115112 C255.7809367 -0.22396429 263.11535206 -0.22965279 270.44981258 -0.2268899 C274.19435846 -0.22569522 277.93882876 -0.22746657 281.68336046 -0.23843026 C296.87593655 -0.28078086 311.87884912 -0.04055374 326.97977221 1.76161122 C329.89795765 2.10595985 332.82177178 2.38906112 335.74609375 2.67578125 C377.67863085 7.22955707 419.91696994 20.67563136 448.75 53.0625 C451 56 451 56 451 58 C451.66 58 452.32 58 453 58 C476.47064858 90.17572481 483.54575692 134.06514437 478.07568359 172.96679688 C477.47938519 176.66609714 476.77352366 180.33405038 476 184 C475.67515625 185.61841797 475.67515625 185.61841797 475.34375 187.26953125 C468.106833 219.44796578 447.43986145 246.19251668 420 264 C415.58301975 266.73350216 411.09839623 269.34120835 406.58203125 271.90625 C403.90234846 273.43789084 401.40878096 275.05803706 399 277 C400.17691406 277.36609375 401.35382813 277.7321875 402.56640625 278.109375 C430.48831894 287.13837821 460.02686214 303.04945542 477 328 C477 328.66 477 329.32 477 330 C477.66 330 478.32 330 479 330 C480.06567383 331.40185547 480.06567383 331.40185547 481.20703125 333.3671875 C481.62637939 334.08293945 482.04572754 334.79869141 482.4777832 335.53613281 C482.91823975 336.30795898 483.35869629 337.07978516 483.8125 337.875 C484.26391357 338.65713867 484.71532715 339.43927734 485.18041992 340.24511719 C497.37516522 361.51814839 505.19051761 384.46678523 507 409 C507.10957031 410.31097656 507.21914062 411.62195313 507.33203125 412.97265625 C508.44737009 428.06690858 508.50749199 442.92497768 506.30322266 457.91748047 C506.10414962 459.28470508 505.91595866 460.65356731 505.73974609 462.02392578 C500.89470652 499.60719883 479.11620538 536.26266338 449.15771484 559.42431641 C417.94137882 582.98020187 381.78278837 595.91190277 343.4375 602.1875 C342.49422852 602.3424292 341.55095703 602.4973584 340.57910156 602.65698242 C321.15862956 605.66502686 302.02023174 606.28894027 282.3994301 606.23214546 C278.54357945 606.22329175 274.6877329 606.22634248 270.83187485 606.2277813 C263.37705586 606.22883644 255.92228581 606.21968227 248.46747933 606.20677864 C239.8284126 606.19227807 231.18937452 606.19078367 222.55029297 606.18920898 C199.78352099 606.17874345 177.01675974 606.15082094 154.25 606.125 C103.3475 606.08375 52.445 606.0425 0 606 C0 406.02 0 206.04 0 0 Z " fill="#FEFEFE" transform="translate(581,297)"/>
<path d="M0 0 C25.6575 -0.061875 51.315 -0.12375 77.75 -0.1875 C89.84994629 -0.22846802 89.84994629 -0.22846802 102.19433594 -0.27026367 C112.13330078 -0.28381348 112.13330078 -0.28381348 116.80328369 -0.28633118 C120.02746931 -0.28909796 123.25150295 -0.30022593 126.47564697 -0.31672668 C160.72481936 -0.48429871 194.11993372 0.93594066 221 25 C231.30382331 36.80963657 235.687922 49.03070628 239 64 C239.17724609 64.74451416 239.35449219 65.48902832 239.53710938 66.25610352 C240.11427378 69.67738558 240.18151266 73.04452361 240.203125 76.50390625 C240.20882507 77.22303696 240.21452515 77.94216766 240.22039795 78.68309021 C240.22981618 80.20350694 240.23636926 81.72394378 240.24023438 83.24438477 C240.2498679 85.53114212 240.28088993 87.81697153 240.3125 90.10351562 C240.37543066 98.84665478 239.66560653 106.59147254 237 115 C236.72019287 115.94979736 236.44038574 116.89959473 236.15209961 117.87817383 C230.9946117 134.86401917 217.99799945 146.56232448 203 155 C184.68703768 164.38212726 163.85761367 166.33029564 143.60961914 166.22705078 C142.00582355 166.22643628 140.40202743 166.2267082 138.79823208 166.2277813 C134.55174779 166.22822784 130.30537911 166.21674236 126.05892181 166.20256042 C122.05583889 166.19106409 118.0527823 166.19062845 114.04968262 166.18920898 C102.38727345 166.17876651 90.72488521 166.15084399 79.0625 166.125 C52.971875 166.08375 26.88125 166.0425 0 166 C0 111.22 0 56.44 0 0 Z " fill="#563D7C" transform="translate(715,633)"/>
<path d="M0 0 C34.77375 -0.0928125 34.77375 -0.0928125 70.25 -0.1875 C77.53352539 -0.21481201 84.81705078 -0.24212402 92.32128906 -0.27026367 C101.30810547 -0.28381348 101.30810547 -0.28381348 105.53314209 -0.28633118 C108.4448349 -0.28909355 111.35635876 -0.30020303 114.26800537 -0.31672668 C130.72336933 -0.40601009 146.80088736 -0.27546808 163 3 C164.06841125 3.21255936 165.13682251 3.42511871 166.23760986 3.64411926 C182.08763637 7.07216929 197.18406859 16.83543045 206.25 30.16015625 C217.11684354 47.79452065 218.72594226 69.5686893 214.3125 89.5625 C210.68083007 104.4804325 204.54907775 116.64970677 192 126 C191.01 126 190.02 126 189 126 C189 126.66 189 127.32 189 128 C183.29465946 131.59225145 177.54555072 134.03613943 171.1875 136.1875 C170.46578613 136.43709473 169.74407227 136.68668945 169.00048828 136.94384766 C157.75234175 140.63351837 146.63505587 141.29085515 134.86816406 141.22705078 C133.3885804 141.22648525 131.90899618 141.226806 130.42941284 141.22793579 C126.45086109 141.22850476 122.4724323 141.21682511 118.49390888 141.20278788 C114.32193453 141.19020373 110.14995671 141.189104 105.97796631 141.18673706 C98.09474472 141.18054471 90.21157924 141.16416459 82.32838225 141.14403808 C71.66378465 141.11740702 60.99917147 141.10668828 50.33454895 141.09503365 C33.55632402 141.07628214 16.77821744 141.0364216 0 141 C0 94.47 0 47.94 0 0 Z " fill="#563D7C" transform="translate(715,401)"/>
</svg>