<svg xmlns="http://www.w3.org/2000/svg" version="1.1" width="820" height="820">
<path d="M0 0 C6.05399258 2.43322336 11.61874587 5.9594312 17.19482422 9.31445312 C20.05416714 11.03254743 22.93152274 12.71580984 25.81640625 14.390625 C29.85865117 16.73767084 33.89431679 19.0954259 37.92578125 21.4609375 C43.75036535 24.86768194 49.61768587 28.19419087 55.5 31.5 C63.3364061 35.90500908 71.1213647 40.38843105 78.875 44.9375 C87.03150813 49.72109579 95.2379649 54.40113227 103.5 59 C112.64916306 64.09389668 121.72199506 69.30228119 130.75415039 74.60058594 C139.80343217 79.90342514 148.90470765 85.11235336 158.02783203 90.28686523 C163.13933239 93.19035463 168.23187277 96.11041884 173.234375 99.19921875 C174.00080322 99.66875977 174.76723145 100.13830078 175.55688477 100.62207031 C176.90999712 101.45747416 178.25533639 102.30570811 179.58959961 103.17089844 C184.19829136 106.00836495 188.54169994 107.374612 194 107 C197.2566351 106.10212165 200.05229882 104.63264442 203 103 C203.95084473 102.47986328 204.90168945 101.95972656 205.88134766 101.42382812 C209.21093936 99.56501763 212.51372464 97.6626526 215.8125 95.75 C217.04579583 95.0393342 218.27936278 94.32913873 219.51318359 93.61938477 C222.07150037 92.14727759 224.62865012 90.67317222 227.18505859 89.19775391 C230.8324707 87.09438167 234.48699586 85.00367836 238.14453125 82.91796875 C238.72280167 82.58820038 239.30107208 82.25843201 239.89686584 81.91867065 C241.05902333 81.2560109 242.22119877 80.59338261 243.38339233 79.93078613 C254.0107525 73.86971412 264.61461456 67.76841095 275.20703125 61.64648438 C283.75453311 56.70965451 292.32526078 51.81423155 300.90023804 46.92538452 C309.06556796 42.26831849 317.20128572 37.56323084 325.3125 32.8125 C334.93441952 27.17831479 344.6195185 21.66459103 354.3359375 16.1953125 C361.08563598 12.39435186 367.80813242 8.54613022 374.52807617 4.69287109 C375.35025635 4.22187988 376.17243652 3.75088867 377.01953125 3.265625 C377.74245361 2.85086914 378.46537598 2.43611328 379.21020508 2.00878906 C384.01795131 -0.70101962 388.55491876 -0.42359189 394 0 C398.7635089 1.6455758 401.21711723 3.82567584 404 8 C405.61326488 11.46916909 406.25059075 14.18621254 406.25447559 18.00257778 C406.26030779 18.99115038 406.26613998 19.97972299 406.27214891 20.99825233 C406.26836958 22.07684283 406.26459026 23.15543332 406.26069641 24.26670837 C406.26452196 25.41830887 406.26834751 26.56990936 406.27228898 27.75640684 C406.28082183 30.94881785 406.28038547 34.14108197 406.27610838 37.33349693 C406.2736424 40.77801277 406.28265371 44.22250151 406.29014587 47.66700745 C406.3028983 54.4134692 406.3046859 61.15989117 406.30234561 67.90636294 C406.30056296 73.38960681 406.30231095 78.87283859 406.30657005 84.35608101 C406.30716524 85.13632309 406.30776043 85.91656517 406.30837366 86.72045096 C406.3095854 88.3054829 406.31079953 89.89051484 406.31201603 91.47554678 C406.32289359 106.34146653 406.32072801 121.2073636 406.31463119 136.07328463 C406.30946136 149.67451362 406.3207188 163.275671 406.33972941 176.87688582 C406.35909875 190.84177312 406.36736543 204.80662653 406.36360615 218.77152735 C406.36169279 226.61210744 406.36419481 234.45262658 406.37832069 242.29319572 C406.39022393 248.96764248 406.39165128 255.64199076 406.37953053 262.31643885 C406.37363446 265.72175402 406.37256231 269.12688897 406.38453293 272.53219223 C406.39494372 276.22373248 406.38694476 279.91478558 406.3742218 283.60630798 C406.38159609 284.68266776 406.38897037 285.75902753 406.39656812 286.86800426 C406.35094832 293.14250278 405.80069241 297.71128994 401.57788086 302.66992188 C396.33480376 307.06185546 390.56262905 310.25269655 384.5625 313.5 C382.30887857 314.74034099 380.05629895 315.9825765 377.8046875 317.2265625 C376.66612305 317.8546582 375.52755859 318.48275391 374.35449219 319.12988281 C369.25594786 321.97230272 364.21988144 324.91746131 359.1875 327.875 C350.94932665 332.70890158 342.68080911 337.4844713 334.3817749 342.21276855 C332.58065267 343.23965053 330.78059741 344.26837509 328.98095703 345.29785156 C328.40193634 345.62906006 327.82291565 345.96026855 327.22634888 346.30151367 C326.65665375 346.62740479 326.08695862 346.9532959 325.5 347.2890625 C321.54957165 349.54825683 317.59216614 351.79379352 313.625 354.0234375 C312.10389176 354.8901427 310.58303422 355.75728815 309.0625 356.625 C308.4012915 356.99012695 307.74008301 357.35525391 307.05883789 357.73144531 C302.15879427 360.55380789 298.55320778 363.89358444 296 369 C295.47454289 373.7894123 295.47395946 377.81069094 297.4375 382.25 C303.35120695 388.59641722 311.47624581 392.47206028 319.0625 396.5 C328.53606278 401.58445005 337.83162585 406.92979241 347.05493164 412.45507812 C348.0061792 413.01904297 348.95742676 413.58300781 349.9375 414.1640625 C350.77152344 414.66373535 351.60554688 415.1634082 352.46484375 415.67822266 C358.05634461 418.59351403 362.86522162 419.83330758 369 418 C373.1293188 416.10556419 377.01967388 413.85750327 380.9375 411.5625 C382.05213623 410.9236084 383.16677246 410.2847168 384.31518555 409.62646484 C387.55233331 407.76577709 390.77821419 405.88713566 394 404 C394.78084961 403.54383301 395.56169922 403.08766602 396.36621094 402.61767578 C399.00693935 401.07235601 401.64428231 399.52160881 404.27539062 397.95996094 C410.9524207 394.00120993 417.69421765 390.1568171 424.4375 386.3125 C434.90633295 380.34284917 445.36495106 374.35656315 455.79321289 368.31616211 C460.74875614 365.44603352 465.71101888 362.59216535 470.70703125 359.79296875 C471.58480225 359.29708252 472.46257324 358.80119629 473.36694336 358.2902832 C474.97891775 357.38065451 476.59530066 356.47877081 478.21704102 355.58666992 C483.29649062 352.70579667 486.71738169 349.99374311 489.08610535 344.4649353 C490.28711513 339.91143323 490.26824549 335.67942629 490.23950195 330.99072266 C490.24151611 329.99807907 490.24353027 329.00543549 490.24560547 327.98271179 C490.24914299 325.83346459 490.24839375 323.68420697 490.24382973 321.5349617 C490.23822463 318.12966203 490.24741502 314.72470145 490.2610321 311.31942749 C490.29811095 301.63969393 490.31670043 291.96007608 490.30541992 282.28027344 C490.29956059 276.35336834 490.31786886 270.42694117 490.35130882 264.50013351 C490.35924972 262.24597891 490.35800372 259.99177204 490.34728432 257.73762894 C490.3329166 254.58058161 490.34927103 251.42503163 490.37231445 248.26806641 C490.36054672 247.34312881 490.34877899 246.41819122 490.33665466 245.46522522 C490.42689581 239.13973143 491.93315944 234.89575828 496 230 C498.54174805 227.95288086 498.54174805 227.95288086 501.26171875 226.46484375 C502.28628174 225.89024414 503.31084473 225.31564453 504.36645508 224.72363281 C505.4623999 224.13420898 506.55834473 223.54478516 507.6875 222.9375 C509.42243915 221.97171597 511.15736055 221.00589839 512.89122009 220.03817749 C514.69741647 219.03310331 516.50807175 218.03643461 518.31933594 217.04052734 C524.36919314 213.70175361 530.33471878 210.21550953 536.3125 206.75 C538.45431109 205.51542375 540.5962301 204.28103469 542.73828125 203.046875 C545.41239001 201.50592013 548.07393007 199.95508417 550.71166992 198.35253906 C555.05333859 195.78635487 558.98210267 195.58184189 564 196 C570.05905444 198.08386171 574.08582832 201.17165664 577 207 C577.1040709 209.44008007 577.14779857 211.85202099 577.14717102 214.29264832 C577.15084771 215.0530425 577.1545244 215.81343668 577.1583125 216.5968731 C577.1693729 219.15858294 577.17319718 221.72025225 577.17700195 224.28198242 C577.18326489 226.11326222 577.18991154 227.94454075 577.19691467 229.77581787 C577.21434162 234.7615432 577.22488132 239.74725893 577.2331202 244.73300719 C577.23826738 247.84707987 577.24434328 250.96114955 577.25063133 254.07522011 C577.26968921 263.81581922 577.28391837 273.55641073 577.2922433 283.29702491 C577.30201513 294.54543453 577.3283308 305.79364733 577.36874419 317.0419876 C577.39889736 325.73251297 577.41371147 334.42298191 577.41702431 343.11355859 C577.41937596 348.30558864 577.42835109 353.49740857 577.45348549 358.68938255 C577.47675679 363.5756119 577.48100318 368.46149267 577.47072411 373.34776306 C577.47022839 375.13961254 577.47655947 376.93147912 577.49028015 378.72327614 C577.50798965 381.17341222 577.50089825 383.62229609 577.48774719 386.07243347 C577.50420106 387.13121327 577.50420106 387.13121327 577.52098733 388.21138257 C577.45115389 393.6159848 575.93820855 396.62409194 573 401 C571.04711914 402.76757812 571.04711914 402.76757812 568.97265625 404.03125 C568.18262207 404.51851562 567.39258789 405.00578125 566.57861328 405.5078125 C565.30219971 406.24644531 565.30219971 406.24644531 564 407 C562.67137939 407.76957031 562.67137939 407.76957031 561.31591797 408.5546875 C558.36968011 410.22804857 555.4062827 411.8669944 552.4375 413.5 C543.96580799 418.20114845 535.54384938 422.97169334 527.1875 427.875 C518.57108013 432.92710673 509.92563037 437.92538108 501.25 442.875 C500.37551712 443.37404846 500.37551712 443.37404846 499.48336792 443.88317871 C494.72617909 446.5976369 489.96737899 449.30926525 485.20849609 452.02075195 C481.05491021 454.38751435 476.90203739 456.75552208 472.75 459.125 C472.16741425 459.45737671 471.58482849 459.78975342 470.98458862 460.13220215 C462.89826636 464.74750409 454.84459596 469.41595964 446.8125 474.125 C437.56317957 479.54746707 428.23386568 484.81329098 418.86694336 490.02954102 C412.99398549 493.30563474 407.15713447 496.62871933 401.375 500.0625 C394.50325366 504.14230445 387.57636725 508.1198773 380.625 512.0625 C379.61872559 512.63556885 378.61245117 513.2086377 377.57568359 513.79907227 C376.63547363 514.33072998 375.69526367 514.8623877 374.7265625 515.41015625 C373.46706787 516.12377319 373.46706787 516.12377319 372.18212891 516.85180664 C367.85009851 519.13123593 363.8109354 519.51099453 359 519 C356.45522354 518.06884316 354.3501805 517.15087497 352 515.875 C351.32831787 515.52518066 350.65663574 515.17536133 349.96459961 514.81494141 C341.60745828 510.38777401 333.49228545 505.51317133 325.34765625 500.7109375 C319.11590043 497.04768211 312.81806422 493.51173599 306.5 490 C297.27038917 484.86423178 288.12761755 479.59786719 279.01953125 474.25 C271.89471691 470.07755971 264.71451235 466.01509629 257.5 462 C248.23792024 456.84471863 239.05065937 451.57711031 229.91845703 446.19506836 C224.84836501 443.21436453 219.75508828 440.29682046 214.59375 437.4765625 C213.02971436 436.61623413 213.02971436 436.61623413 211.43408203 435.73852539 C209.45719928 434.65542083 207.4741462 433.58346974 205.48388672 432.52514648 C199.05014052 428.98838256 193.40597014 425.21791041 191 418 C190.7854423 415.07949378 190.62350945 412.17738099 190.50561523 409.25268555 C190.46691818 408.35789993 190.42822113 407.46311432 190.38835144 406.54121399 C190.04840556 398.26704456 189.83985151 389.99007852 189.67437649 381.710742 C189.56056641 376.15314627 189.40174573 370.60499838 189.13452148 365.05249023 C187.45666125 329.28312619 187.45666125 329.28312619 193.21478271 320.69775391 C198.73429177 315.64198387 204.99644784 313.11392128 212.08108521 310.94290161 C215.98189235 309.68281778 219.01655546 307.87142319 222.484375 305.6953125 C224.57229012 304.50410946 226.66082215 303.31398702 228.75 302.125 C229.91381422 301.46123567 231.07754852 300.79733119 232.24121094 300.13330078 C236.42371255 297.74698513 240.60760984 295.36312118 244.79150391 292.97924805 C248.94508977 290.61248566 253.09800191 288.24454677 257.25 285.875 C257.83192108 285.54295563 258.41384216 285.21091125 259.01339722 284.86880493 C267.99954593 279.73906139 276.95427356 274.55727445 285.87011719 269.30615234 C296.50119974 263.06668632 307.26123442 257.0514624 318 251 C318.09276491 239.25603661 318.16379816 227.51216068 318.20724869 215.76790524 C318.22810498 210.31429521 318.2563872 204.86093625 318.30175781 199.4074707 C318.34528489 194.14252321 318.36915184 188.87781689 318.37950897 183.61270332 C318.38688798 181.60607673 318.40129754 179.59946303 318.42292023 177.59293938 C318.45204522 174.77773604 318.45595218 171.96352362 318.45410156 169.14819336 C318.46848267 168.32244308 318.48286377 167.49669281 318.49768066 166.6459198 C318.45738176 160.96377459 317.22113018 157.69878088 314 153 C310.81125451 149.97069178 307.49053233 149.07237362 303.1875 148.4375 C294.34258511 148.92307833 285.53949308 155.92311508 278.125 160.3125 C269.15922798 165.58173406 260.16050479 170.7889659 251.125 175.9375 C248.7732447 177.27830796 246.42169357 178.61947336 244.0703125 179.9609375 C243.48798859 180.29315308 242.90566467 180.62536865 242.30569458 180.96765137 C235.85974881 184.64735645 229.42867181 188.35271959 223 192.0625 C221.96891113 192.65732178 220.93782227 193.25214355 219.87548828 193.86499023 C218.88532715 194.43677002 217.89516602 195.0085498 216.875 195.59765625 C215.91464844 196.15211426 214.95429688 196.70657227 213.96484375 197.27783203 C211.86922524 198.49509924 209.77853664 199.72087249 207.69140625 200.95263672 C206.61761719 201.58572754 205.54382813 202.21881836 204.4375 202.87109375 C203.46683594 203.44657959 202.49617187 204.02206543 201.49609375 204.61499023 C196.77781477 207.2330259 192.29680102 207.82436094 187 207 C178.97206124 203.67708029 171.45832645 199.052619 164 194.625 C161.89389091 193.38559357 159.78709129 192.14735997 157.6796875 190.91015625 C156.58881836 190.26965332 155.49794922 189.62915039 154.37402344 188.96923828 C148.64731361 185.62686191 142.88617262 182.34494724 137.125 179.0625 C134.7758293 177.72302838 132.42690941 176.3831176 130.078125 175.04296875 C129.49622406 174.71096466 128.91432312 174.37896057 128.31478882 174.03689575 C121.82548886 170.33252114 115.34861581 166.60670137 108.875 162.875 C107.82715332 162.27179932 106.77930664 161.66859863 105.69970703 161.04711914 C100.11050096 157.82236864 94.56045446 154.54761282 89.06298828 151.16845703 C84.83842772 148.77570593 80.74927431 148.50434519 76 149 C70.65259586 150.95385921 67.54381857 153.91236287 65 159 C64.90008761 161.1357428 64.86653407 163.27467659 64.86196899 165.41275024 C64.85773707 166.41140061 64.85773707 166.41140061 64.85341966 167.43022573 C64.84505515 169.67175718 64.84373381 171.91323935 64.84228516 174.15478516 C64.83761815 175.75784444 64.83247477 177.3609024 64.82688904 178.96395874 C64.81559578 182.42232769 64.8071674 185.88068796 64.80076981 189.33906937 C64.7900988 194.81066353 64.76985499 200.28219566 64.74765015 205.75375366 C64.68570009 221.3151362 64.63175097 236.87651574 64.59863281 252.43798828 C64.58027141 261.02779463 64.5513137 269.61749767 64.5106281 278.20722806 C64.48957844 282.75256455 64.47410378 287.29777094 64.47182083 291.84315872 C64.46966895 296.12285301 64.45374457 300.40227676 64.42743111 304.68188858 C64.4202564 306.24914558 64.41812825 307.81643542 64.42153358 309.38370514 C64.45374937 327.03603028 64.45374937 327.03603028 59.68985939 332.5036869 C55.98413748 335.88616983 52.13722417 337.95984035 47.07373047 338.0246582 C40.42905199 337.52452925 35.6461862 335.11640149 29.9375 331.8125 C28.99720947 331.28366211 28.05691895 330.75482422 27.08813477 330.20996094 C24.04791121 328.4915846 21.02293604 326.74858911 18 325 C16.44152344 324.10450439 16.44152344 324.10450439 14.8515625 323.19091797 C8.74295347 319.67752509 2.66151652 316.12130033 -3.40087891 312.52880859 C-5.67598012 311.19058919 -7.96348071 309.8799189 -10.26171875 308.58203125 C-11.42473732 307.90930026 -12.58752512 307.23617004 -13.75 306.5625 C-14.69359375 306.02753906 -15.6371875 305.49257813 -16.609375 304.94140625 C-20.45359085 301.81955122 -22.64838177 298.38314305 -23.3690424 293.49876213 C-23.51574231 290.46708883 -23.53301414 287.45876075 -23.50793457 284.42358398 C-23.51417453 283.2628131 -23.5204145 282.10204222 -23.52684355 280.90609646 C-23.54000818 277.69717126 -23.53531088 274.48885459 -23.52289867 271.2799449 C-23.51383254 267.81429325 -23.52782562 264.34872261 -23.53881836 260.88308716 C-23.55659158 254.09908508 -23.552769 247.31526017 -23.5411678 240.53125119 C-23.53212901 235.01706569 -23.53091139 229.5029298 -23.53526306 223.98873901 C-23.53587599 223.20350591 -23.53648893 222.41827281 -23.53712043 221.60924476 C-23.53839935 220.01398761 -23.5396962 218.41873046 -23.5410108 216.82347333 C-23.55241308 201.86973519 -23.53930842 186.91609518 -23.51780933 171.96237314 C-23.49993865 159.13534806 -23.50304286 146.30846778 -23.52148438 133.48144531 C-23.54289731 118.58070142 -23.55131448 103.68004351 -23.53903532 88.77928638 C-23.53776114 87.1899446 -23.53650366 85.6006028 -23.53526306 84.01126099 C-23.53464596 83.22930357 -23.53402886 82.44734615 -23.53339306 81.64169306 C-23.52994142 76.13503957 -23.53576447 70.62844068 -23.54518127 65.12179565 C-23.55640735 58.40969313 -23.55334852 51.69777769 -23.5320583 44.98569655 C-23.52155592 41.5619755 -23.51741181 38.13856621 -23.53065491 34.71484756 C-23.54156892 31.00172509 -23.52789492 27.28948229 -23.50793457 23.57641602 C-23.51685746 22.49655143 -23.52578034 21.41668684 -23.53497362 20.30409908 C-23.46892694 13.97925867 -22.75446294 10.15001941 -19 5 C-12.96907853 -0.456548 -8.02610023 -1.4875257 0 0 Z " fill="#007EFF" transform="translate(133,163)"/>
<path d="M0 0 C4.89502248 2.44751124 7.32931598 5.26852249 10 10 C10.50793457 13.44578552 10.50793457 13.44578552 10.51757812 17.27124023 C10.5245874 17.972883 10.53159668 18.67452576 10.53881836 19.39743042 C10.55632818 21.70156212 10.54480063 24.004451 10.53125 26.30859375 C10.53394727 27.91992934 10.53783164 29.53126334 10.54284668 31.14259338 C10.54873245 34.5142471 10.54021006 37.8854759 10.52148438 41.25708008 C10.49871327 45.5656979 10.51181136 49.87331795 10.53577423 54.18189907 C10.55027313 57.50807626 10.5456073 60.83401945 10.53526306 64.16020393 C10.53260609 65.74813011 10.5358291 67.33607795 10.54518127 68.92397881 C10.5554131 71.14967443 10.53975584 73.37378666 10.51757812 75.59936523 C10.51439575 76.86256088 10.51121338 78.12575653 10.50793457 79.42723083 C9.71575275 84.9993713 7.57609867 88.73567619 3.11816406 92.31176758 C2.01182617 92.97845459 0.90548828 93.6451416 -0.234375 94.33203125 C-0.84343689 94.70495804 -1.45249878 95.07788483 -2.08001709 95.46211243 C-4.0436925 96.65830024 -6.02076131 97.82977783 -8 99 C-9.32679274 99.79893729 -10.65296316 100.59890895 -11.97851562 101.39990234 C-16.05470276 103.85352054 -20.15099673 106.2722575 -24.25 108.6875 C-26.33034024 109.91672577 -28.41023747 111.14669735 -30.48995972 112.37696838 C-31.82548249 113.16631653 -33.16167015 113.95454096 -34.49856567 114.74156189 C-39.01116 117.4004785 -43.48039299 120.12283293 -47.91455078 122.91113281 C-52.92970927 125.52967728 -57.91857364 125.59483478 -63.25 123.9375 C-68.12017983 121.8128598 -70.7794183 118.49408033 -73.11465454 113.72236633 C-74.17283451 110.46854774 -74.2682835 107.73903284 -74.29052734 104.31713867 C-74.29724457 103.66601608 -74.30396179 103.01489349 -74.31088257 102.34403992 C-74.32980351 100.20193749 -74.33378389 98.06014944 -74.3359375 95.91796875 C-74.34237025 94.41970189 -74.34909896 92.92143627 -74.35610962 91.423172 C-74.36806811 88.2852589 -74.37179199 85.14745576 -74.37060547 82.00952148 C-74.37040252 78.0048168 -74.3976854 74.00082366 -74.43214989 69.99628735 C-74.45448015 66.90172643 -74.45844113 63.807335 -74.45738602 60.7127018 C-74.45973351 59.23722193 -74.46850871 57.76173678 -74.48405075 56.2863369 C-74.56006145 48.32444664 -74.59383376 41.78689588 -70 35 C-63.30190143 28.60012426 -54.39655334 24.34953367 -46.4375 19.6875 C-44.37131522 18.47133872 -42.30592609 17.25383492 -40.2406311 16.03616333 C-38.87258291 15.23015045 -37.50391242 14.42519283 -36.13461304 13.62130737 C-32.67749655 11.58976977 -29.23221889 9.5414016 -25.80517578 7.45947266 C-25.12947037 7.04977737 -24.45376495 6.64008209 -23.75758362 6.2179718 C-22.48194728 5.44289925 -21.20816078 4.66477036 -19.93663025 3.88298035 C-12.8392235 -0.42633014 -8.13966922 -1.78994331 0 0 Z " fill="#007EFF" transform="translate(700,164)"/>
</svg>